<svg width="470" height="435" fill="none" xmlns="http://www.w3.org/2000/svg"><g clip-path="url(#clip0)"><path d="M295.9 379.8l-33.2-1.5-8.4-4.8 28.6-17.4-2.7-1.7-5.9 1.3-24.2 14.9-4.8-2.9 5-2.9-30.5-17.6 1.3-1.5 30.7 18.1 10.3-6.3-62.6-35.1 1.9-1.5 62.2 35.5 10.7-6.1-65.2-38.2-43.5 24-60.7-3.1-13.4 5.7 42 4.6-130 42.4 3.1 7.2 141.3-46-21.6 12.1 2.7 1.5 9-2.5 23.5 14.5 4.8 9.2 10.9 1.7 13 7.1L80.5 425l-2.7 9.5 138-45.4-18.1 12.2h8.8l24-14.9 57.6 3.6 13.2-6.3-5.4-3.9zm-105.7-51.9l16.4 9.2-3.1 1.7-15.8-9.5 2.5-1.4zm13.4 48L169 355.1v-2.3l37.6 21.4-3 1.7zm34.3 1.3h-8l-51.3-30.4h2.5l50 28 8.8-3.6 4.8 2.1-6.8 3.9zm231.6-51.9L430 281l-36.9 7.2 33.2-9.7-44.9-24-107.3-53.1-56 16.7-57.1 64.2 79.4-16.2 137.7 77-55.2 14.1-9 11.7 71.8-12.3-2.6 7.1 31.5-3.9s13.2-3.1 12.2-13.2c-.1-1.3-.5-2.4-1.2-3.3l37.3-16.5 6.6-1.5z" fill="#BDB0AA"/><path d="M378.8 257.4l-140.9-81.3v-4.5l140.9 81.3v4.5z" fill="#907159"/><path d="M378.8 252.9l-140.9-81.3 18.8-10.9 140.9 81.4-18.8 10.8z" fill="#A47F66"/><path d="M378.8 257.4v-4.5l18.8-10.8v4.5l-18.8 10.8z" fill="#836552"/><path d="M378.8 253.5h-.2c-.3-.1-.5-.4-.4-.7l18.8-65.9c.1-.3.4-.5.7-.4.3.1.5.4.4.7l-18.8 65.9c0 .2-.2.4-.5.4zm-140.9-81.4h-.2c-.3-.1-.5-.4-.4-.7l18.8-65.9c.1-.3.4-.5.7-.4.3.1.5.4.4.7l-18.7 65.9c-.1.3-.3.4-.6.4z" fill="#2B2B2B"/><path d="M232.5 240.6l-70.9 40.9V154.9l70.9-40.9v126.6z" fill="#C2C0BC"/><path d="M161.6 281.5l-70.9-40.9V114l70.9 40.9v126.6z" fill="#F3F1ED"/><path d="M157.7 156.2l-63.1-36.4-.7-.4V239l64.6 37.3V156.6l-.8-.4zm-39.5-21.4l1.3 4.5c.6 2 2.1 4 3.7 4.9l5.8 3.4c1.6.9 3.1.7 3.7-.6l1.3-2.9 23 13.3v22.1l-62-35.8v-22.1l23.2 13.2zm-23.1 55.9v-22.1l23 13.3 1.3 4.5c.6 2 2.1 4 3.7 4.9l5.8 3.4c1.6.9 3.1.7 3.7-.6l1.3-2.9 23 13.3v22.1l-61.8-35.9zm0-23.5V145l23 13.3 1.3 4.5c.6 2 2.1 4 3.7 4.9l5.8 3.4c1.6.9 3.1.7 3.7-.6l1.3-2.9 23 13.3V203l-61.8-35.8zm0 71v-46.1l23 13.3 1.3 4.5c.6 2 2.1 4 3.7 4.9l5.8 3.4c1.6.9 3.1.7 3.7-.6l1.3-2.9 23 13.3v46l-61.8-35.8z" fill="#AAA79F"/><path d="M313.9 242.3v126.6l-9.7-5.6V236.7l9.7 5.6z" fill="#F3F1ED"/><path d="M313.9 242.3v126.6l9.6-5.6V236.7l-9.6 5.6z" fill="#C2C0BC"/><path d="M397.3 194.1v126.6l-9.6-5.6V188.5l9.6 5.6z" fill="#F3F1ED"/><path d="M397.3 194.1v126.6l9.7-5.6V188.5l-9.7 5.6z" fill="#C2C0BC"/><path d="M412.5 191.1l-30.8 17.8-58.2 33.6L83.8 104.1l32.1-18.6 2.3-1.3 13-7.5 15.8-9.1 3-1.7 22.7-13.2 22.7 13.1 16.8 9.7 5.1 2.9 8.8 5.1.9.5 2.3 1.4 88.4 51 2.5 1.4 1.5.9 5.9 3.4 3.7 2.1L376 170l1.5.9 3.1 1.8 31.9 18.4z" fill="#C69A7B"/><path d="M323.5 248.2v-5.7l89-51.4v5.7l-89 51.4z" fill="#A58067"/><path d="M323.5 248.2L83.8 109.7v-5.6l239.7 138.4v5.7z" fill="#B28C6E"/><path d="M148.4 132.6l126.8 73.2c4 2.3 10.4 2.3 14.4 0l50.4-29.1c4-2.3 4-6 0-8.3L213.2 95.2c-4-2.3-10.4-2.3-14.4 0l-50.4 29.1c-4 2.2-4 6 0 8.3z" fill="#EAEAEA"/><path d="M295.8 133.3l-8.8 7-.5.3-.5.3-.6.2-.6.2-.7.1H282l-.7-.1-.7-.2-.6-.2-.5-.3-18.4-10.6-.5-.3-.3-.4-.3-.3-.2-.4-.1-.4v-.4l.1-.4.2-.4.3-.4.4-.4.5-.3.5-.2 12-5.1 22.1 12.7z" fill="#DCDDDF"/><path d="M296.5 134l-9.5 7.3-.4.3-.5.3-.6.2-.6.2-.7.1-.7.1-.1-1.1h.7l.7-.1.6-.2.6-.2.5-.3.5-.3 8.8-7 .7.4v.3z" fill="#A5A5A5"/><path d="M283.5 142.5h-.8l-.7-.1-.7-.1-.6-.2-.7-.2-.5-.2-18.4-10.7-.5-.3-.3-.3-.4-.4-.2-.4v-1.4l.1.4.2.4.3.3.3.4.5.3 18.4 10.6.5.3.6.2.7.2.7.1h1.4l.1 1.1z" fill="#A5A5A5"/><path d="M366 197.9l-7.4 3-.6.2-.7.1-.6.2h-1.4l-.7-.1-.7-.1-.7-.2-.5-.2-.6-.3-.4-.3-.4-.4-11.6-13.4-.2-.4-.2-.4-.1-.4v-.4l.2-.4.2-.4.3-.4.4-.3.5-.3.6-.2.6-.2.7-.2 8.5-1.6 14.8 17.1z" fill="#DCDDDF"/><path d="M354.6 202.4l-.7-.1-.6-.2-.6-.3-.5-.2-.5-.4-.4-.3-11.6-13.5-.2-.4-.2-.4-.1-.4v-1l.1.4.2.4.2.4 11.6 13.4.4.4.4.3.6.3.5.2.7.2.7.1v1.1z" fill="#A5A5A5"/><path d="M366.7 198.7l-8 3.2-.6.2-.6.2-.7.1-.7.1h-.8l-.7-.1v-1.1l.7.1h1.4l.6-.2.7-.1.6-.2 7.4-3 .7.8zM185.4 85.1l-.1.7-.1 1.1-.1 1.1-30-4.7.7-.9.7-1.1.3-.6 28.6 4.4z" fill="#A5A5A5"/><path d="M185.1 88l-1.8 9.1-.1.4-.3.3-.3.4-.4.4-.5.2-.5.3-.6.2-.7.2-.7.1h-1.4l-.7-.1-25.1-3.9-.7-.1-.6-.2-.6-.2-.5-.3-.4-.3-.4-.4-.2-.4-.2-.4v-.8l.1-.4.3-.4 6.3-8.4 30 4.7z" fill="#DCDDDF"/><path d="M180.7 100.3l-.7.2-.7.1-.7.1-.8-.1-.7-.1-25.1-3.8-.7-.2-.6-.2-.6-.2-.5-.3-.5-.3-.3-.4-.3-.4-.2-.4v-.4l.1-1v.4l.2.4.2.4.4.4.4.3.5.3.6.2.6.2.7.1 25.1 3.9.7.1h1.4l.7-.1.7-.2.1 1zm4.9-15.2l-.1 1.5-.2 1.3-.1 1.1-1.8 9.1-.1.4-.2.4-.4.3-.4.4-.5.3-.5.2-.6.2-.1-1 .6-.2.5-.3.5-.2.4-.4.3-.4.3-.3.1-.4 1.8-9.1.1-1.1.1-1.1.1-.7h.2z" fill="#A5A5A5"/><path d="M412.5 191.1l-30.8 17.8-1.1-1.3-3.1-3.7-36.7-43.7h-5.4l-3.9-2.3-37.7-21.8-.9-.5-23.1-13.4-24.3-14.1 4-1.5 6.9-2.6-3.8-3-9.1 2.1-3.8.9-55.8-8.3-.3-.1-33.9-5-33.8-5.1 2.3-1.3 20-5.7 1.8-.4 30.8-6.9 5.8-1.2 18.8-4.2 16.8 9.7 5.1 2.9 8.8 5.1.9.5 2.3 1.4 88.4 51 2.5 1.4 1.5.9 5.9 3.4 3.7 2.1L376 170l1.5.9 3.1 1.8 31.9 18.4z" fill="#BDB0AA"/><path d="M380.6 140.9v-.6l-.1-.3-.1-.3-.1-.3-.1-.3-.1-.3-.1-.2-.1-.2-.1-.2-.1-.2-.6-.7-53.2-61.6-.1-.1-.1-.1-.1-.1-3.1.9.1.1.1.1.1.1 49.1 56.8 4.7 5.4.1.2.1.2.1.2.1.2.1.3.1.3.2.6.1.3v68.8l-.1.1-.1.1 3.1-.9.1-.1.1-.2v-68z" fill="#A5A5A5"/><path d="M377.5 199.9v10l-.1.1v.2l-.1.1-.1.1h-.3l-.1-.1-.2-.1-.1-.1-9.8-11.4-.7-.8-14.8-17.1-28.5-33-.1-.1-.1-.2-.1-.2-.2-.3-.1-.3-.1-.2-.1-.3v-.3l-.1-.3v-.3l-.1-.2v-9.8l55.5 64.3.3.3z" fill="#CFD0D3"/><path d="M376 141v55l-53.4-61.8v-55L376 141z" fill="#3B3C40"/><path d="M377.5 141.7v-.6l-.1-.3-.2-.6-.1-.3-.1-.3-.1-.2-.1-.2-.1-.2-.1-.2-4.7-5.4-49.1-56.8-.1-.1-.1-.1-.1-.1 3.1-.9-3.5.9h-.2l-.1.1-.1.1-.1.2V135l.3.4 5.9 6.8 49.6 57.4.3.4v-58l-.2-.3zM376 196l-44.7-51.8-8.7-10.1v-55l45 52.1 8.4 9.8v55z" fill="#DCDDDF"/><path d="M320.1 75.1v-.3l-.1-.3-.1-.3-.1-.3-.2-.3-.1-.3-.2-.2-.2-.2-.2-.2-.2-.2-.2-.1-85.2-49.2-.2-.1-.2-.1h-.4l-2.4 1.4h.4l.2.1.2.1 85.2 49.2.2.2.2.2.2.2.2.2.2.2.2.3.1.3.1.3.1.3.1.3v68.3l-.1.2-.1.2 2.4-1.4.1-.2.1-.2V75.1z" fill="#A5A5A5"/><path d="M317.7 134.2v10.4l-.1.2-.1.1-.1.2-.1.1h-.2l-.2.1h-.1l-.2-.1h-.2l-.3-.1-19.4-11.3-.2-.1-.7-.4-22.1-12.7-42.8-24.7-.2-.2-.2-.1-.2-.2-.2-.2-.1-.3-.2-.2-.1-.3-.1-.2-.1-.3-.1-.3v-.2l-.1-.3v-9.7l88.2 50.9.2-.1z" fill="#CFD0D3"/><path d="M317.7 76.5v-.3l-.1-.3-.1-.3-.1-.3-.1-.3-.2-.3-.2-.2-.2-.2-.2-.2-.2-.2-.2-.2-85.2-49.2-.2-.1-.2-.1h-.4l-.2.1-.3.5-.1.2-.1.2v57.9l88.1 50.9.3-.1V76.7l-.1-.2zm-2.1 54.6L231 82.2v-55l84.7 48.9v55h-.1z" fill="#DCDDDF"/><path d="M315.6 76.1v55L231 82.2v-55l84.6 48.9z" fill="#3B3C40"/><path d="M227 20.2v67.7l-.1.2-.1.2-.8 1.7.1-.2V21.9l-.1-.3v-.2l-.2-.2-.1-.3-.2-.2-.2-.2-.3-.1-.2-.2-.3-.1-.3-.1-.3-.1-116.4-18h-.8l-.2.1-.3.1-.2.1-.2.2-.1.2.8-1.9.2-.2.2-.2.2-.1.2-.1.3-.1h.8l116.4 18 .3.1.3.1.3.1.2.1.3.2.2.2.2.2.1.2.1.3.1.2.1.3v.2z" fill="#A5A5A5"/><path d="M226.1 79.6v10.2l-.1.2v.2l-.2.2-.1.2-.2.2-.2.1-.3.1-.2.1h-.9l-38.3-6h-.2l-28.6-4.4-49.3-7.7h-.2l-.3-.1-.3-.1-.2-.2-.3-.1-.2-.2-.2-.2-.1-.3-.2-.2-.1-.2V61.1L226 79.8l.1-.2z" fill="#CFD0D3"/><path d="M223.5 22.2v55L107.8 59.3V4.4l115.7 17.8z" fill="#3B3C40"/><path d="M226.1 21.9l-.1-.2-.1-.2-.1-.2-.2-.2-.2-.2-.2-.2-.2-.2-.2-.2-.3-.1-.3-.1-.3-.1L107.5 2h-1l-.2.1-.3.1-.2.2-.2.2-.1.2-.3.6v57.8h.1l41.6 6.4 23.8 3.7 46.5 7.2 8.7 1.3.1-.2V22.1l.1-.2zm-2.6 55.3l-11.2-1.7-35.7-5.5-26.6-4.1-42.1-6.5v-55l115.6 17.9v54.9z" fill="#DCDDDF"/><path d="M92.7 339.6l-.4-.2-3.6-2.1-.3-.2c-.1-.1-.1-.2-.2-.3l-1.8-4.6-6.3-15.8-1.5-3.7-3.1-7.8-1.6-3.9-1.5-3.7-1.3-3.2-1.8-4.6-1.1-2.6-1.5-3.7-1.6-3.9-1-2.6-.7-1.6-1.4-3.5-10.6-26.4-.1-.2-2.3-6-.8-2-1.6-4-16.4-41c-.3-.7.1-1.8.9-2.5l3.3-3.2c.5-.5 1-.7 1.4-.5l.3.2.2.1.2.1 3.7 2.1c-.4-.1-.9 0-1.4.5l-1 1-2.2 2.2c-.2.1-.3.3-.4.5-.1.1-.1.2-.2.3 0 .1-.1.1-.1.2-.1.2-.2.5-.2.7v.3c0 .2 0 .3.1.5l1.3 3.3 5.2 12.9.1.3 8.3 20.7.7 1.8.4 1 2.3 5.7 1.2 3 10.6 26.6 1.4 3.5 1.7 4.2v.5l3.1 7.7 1.5 3.7 1.1 2.6 1.2 3.1 1.9 4.6.9 2.3.6 1.4 1.6 3.9L83 315l1.5 3.7 6.3 15.7.4.9.3.9 1.1 2.7v.1c0 .5 0 .5.1.6z" fill="#C69A7B"/><path d="M97.6 336.1l-3.3 3.2c-.5.4-.9.6-1.3.6-.1 0-.3-.1-.4-.2-.1-.1-.1-.1-.1-.2l-1.5-3.7-56.5-141.3c-.3-.7.1-1.8.9-2.5l2.2-2.2 1-1c.5-.5 1-.7 1.4-.5l.2.1c.1.1.2.2.2.3l58.1 144.9c.3.6-.1 1.7-.9 2.5z" fill="#A58067"/><path d="M104.3 253.2c0 .2 0 .4-.1.7 0 .1 0 .1-.1.2-.2.6-.7 1.3-1.2 1.6l-3 1.9-2.4 1.5-1.3.8-4.9 3.1-2.4 1.5-1.8 1.1-5 3.1-2.4 1.5-.4.3-1.9 1.2-3 1.9-1.9 1.2-.1.1-2.3 1.4-2.3 1.4-.2.2-2.4 1.5-2.5 1.6-2.4 1.5-1.7 1.1-5 3.1-2.4 1.5-.8.5-1.7 1.1-5 3.1-.3.2-2.1 1.3-5.4 3.4-3.4 2.1c-.2.1-.5.2-.6.2h-.4l-.2-.1c-.2-.1-.3-.4-.3-.7l-.1-2.1c0-.3 0-.5.1-.8.1-.2.2-.5.3-.7.1-.1.2-.3.3-.4.2-.2.4-.4.6-.5l5.5-3.4 25.5-16 2.7-1.7 3.5-2.2 3.1-2 27.1-17 .5-.3 1.6-1 .7-.4c.2-.1.4-.2.6-.2h.3c.2 0 .3.1.4.2.1.2.2.4.2.7v.6l.4 1.1z" fill="#B28C6E"/><path d="M103.6 250.3c-.2 0-.6 0-.9.2l-2.3 1.4-68 42.6c-.6.3-1 1-1.2 1.6-.1.3-.1.6-.1.8l.1 2.1c0 .3.1.6.3.7l-3.4-2-.3-.2c-.1-.1-.2-.4-.2-.7l-.1-2.1c0-.9.6-2 1.4-2.5l70.3-44c.4-.2.7-.3 1-.2l.2.1 3.2 2.2z" fill="#C69A7B"/><path d="M100.2 248.3l-.2-.1s.1 0 .2.1z" fill="#B28C6E"/><path d="M31 299v-2c0-.9.6-2 1.4-2.5l70.3-44c.8-.5 1.5-.2 1.5.7l.1 2.1c0 .9-.6 2-1.4 2.5l-70.3 44c-.9.4-1.5.1-1.6-.8z" fill="#A58067"/><path d="M.2 391.8l.5.3c-.2 0-.4-.1-.5-.3z" fill="#B28C6E"/><path d="M52 233v.1l-1.5.2c-.7.1-1.6 1-1.9 2l-46 156.5v.1c-.2.5-.1 1 .1 1.3l-.2-.1-1.8-1-.5-.3c-.2-.3-.3-.8-.1-1.3l46-156.6c.3-1 1.1-1.9 1.9-2l3.2-.5c.7-.1 1.1.7.8 1.6z" fill="#C69A7B"/><path d="M54.5 234.5l-1.7 5.7-1.3 4.5-.1.3-11.9 40.5L38 291v.1l-1.9 6.4v.1L18 359.1l-1.4 4.6-6.4 21.9-1.6 5.5c-.1.5-.4.9-.7 1.2-.4.4-.8.7-1.2.7l-3.2.5h-.2c-.1 0-.2 0-.2-.1-.1-.1-.2-.1-.3-.2-.1-.2-.2-.4-.2-.7v-.3c0-.1 0-.2.1-.3v-.1l.6-1.9 26.7-91 2.6-9 15.6-53 .5-1.6c.2-.8.9-1.6 1.5-1.9.1-.1.3-.1.4-.1l.7-.1.8-.1 1.8-.2c.6-.1.9.6.6 1.6z" fill="#A58067"/><path d="M116.5 256.3c-32.1-11.4-57.4-22.6-71.9-41.5l-8.1-19.2c18.7 18.5 36.7 30.4 71.9 41.5l8.1 19.2z" fill="#B28B6F"/><path d="M99.7 331.8c-.1 0-.2-.1-.3-.2l.3.2zm3.7-114.5l-.3-.2h.1l.2.2c-.1 0-.1 0 0 0z" fill="#B28C6E"/><path d="M115.3 258c-32.1-11.4-57.4-22.6-71.9-41.5l-8.1-19.2c18.7 18.5 36.7 30.4 71.9 41.5l8.1 19.2zm-18.9-2.4l63.1 36.4 5.1-3-63-36.4-5.2 3z" fill="#C69A7B"/><path d="M159.5 294.8l-63.1-36.4v-2.8l63.1 36.4v2.8z" fill="#B28C6E"/><path d="M87.7 261l63.1 36.4 5.1-3-63-36.4-5.2 3z" fill="#C69A7B"/><path d="M150.8 300.2l-63.1-36.4V261l63.1 36.4v2.8z" fill="#B28C6E"/><path d="M78.9 266.8l63 36.4 5.2-3L84 263.8l-5.1 3z" fill="#C69A7B"/><path d="M141.9 303.2v2.9l-.1-.1-3.7-2.2-6.5-3.7-4.3-2.5-8.4-4.8-4.8-2.8-2.6-1.5-10.2-5.9L81 270.9l-1.3-.7-.8-.5v-2.9l3.2 1.9 8.3 4.8 20.3 11.7 1.5.9 2.6 1.4 4.8 2.8 6.2 3.6 4.3 2.5 10.3 6 .5.2 1 .6z" fill="#B28C6E"/><path d="M137.2 306.1l-2.6 1.4-2.6 1.5-.2-.1-1-.5-14.1-8.2-4.8-2.8-2.6-1.4-33.6-19.5-2.9-1.6-.3-.2-3.5-2.1 4.1-2.4 1-.5 3.3 1.9h.1l14.8 8.6 18.5 10.7 2.6 1.4 4.8 2.8 10.5 6.1 4.4 2.5 2.7 1.6 1.4.8z" fill="#C69A7B"/><path d="M132 311.9l-63-36.4v-2.9l63 36.4v2.9z" fill="#B28C6E"/><path d="M59.7 279.2l63.1 36.4 5.1-3-63-36.4-5.2 3z" fill="#C69A7B"/><path d="M122.8 318.5l-63.1-36.4v-2.9l63.1 36.4v2.9z" fill="#B28C6E"/><path d="M51 285.1l63.1 36.4 5.1-3-63-36.4-5.2 3z" fill="#C69A7B"/><path d="M114.1 321.5v2.8l-.9-.5-2.9-1.7-.7-.4-4.2-2.4-2.5-1.4-13.9-8-10.8-6.3-4.2-2.4-.1-.1-20.2-11.6-2.5-1.5-.2-.1v-2.8l2.6 1.4v.1l9.5 5.4 9.3 5.4 4.3 2.5 6.7 3.8 4.1 2.4 16.1 9.3 2.6 1.5 4.8 2.8.9.5 2.2 1.3z" fill="#B28C6E"/><path d="M108.4 324l-5.2 3-1.1-.6-1.4-.9-7-4-10.8-6.2-4.3-2.5-34-19.6-.8-.5h-.1l-3.5-2.1 5.1-3 3.4 2 15.4 8.9 11.4 6.5 4.3 2.5 10.8 6.3 11.5 6.6 2.6 1.5 2.3 1.4 1.4.7z" fill="#C69A7B"/><path d="M103.2 327v2.9l-3.5-2-4.5-2.7-10.8-6.2-4.3-2.5-38.7-22.3-1.2-.7v-2.9l3.5 2.1h.1l34.8 20.1 4.3 2.5 10.8 6.2 8.4 4.9 1.1.6zM73.8 432.9l.5.3c-.2-.1-.4-.1-.5-.3z" fill="#B28C6E"/><path d="M125.6 274.1v.1l-1.5.2c-.7.1-1.6 1-1.9 2l-3.6 12.2-1.7 5.7-30.6 104.3-1.4 4.6-8.7 29.7v.1c-.2.5-.1 1 .1 1.3l-.2-.1-1.8-1.1-.5-.3c-.2-.3-.3-.8-.1-1.3l8.8-29.8 1.4-4.6 30.4-103.6 1.7-5.7 3.8-12.9c.3-1 1.1-1.9 1.9-2l3.2-.4c.6-.1 1 .6.7 1.6z" fill="#C69A7B"/><path d="M128.1 275.6l-46 156.6c-.3 1-1.1 1.9-1.9 2l-3.2.5h-.2c-.1 0-.2 0-.2-.1-.1-.1-.2-.1-.3-.2-.2-.3-.2-.7-.1-1.3v-.1l46-156.5c.3-1 1.1-1.9 1.9-2l1.5-.2 1.8-.2c.7-.2 1 .5.7 1.5z" fill="#A58067"/><path d="M173.1 290c0 .9-.6 2-1.4 2.5l-5.7 3.6-2.1 1.3-2.1 1.3-60.3 37.8c-.4.2-.7.3-1 .2l-.2-.1c-.2-.1-.3-.4-.3-.7l-.1-2.1c0-.3 0-.5.1-.8.2-.6.7-1.3 1.2-1.6l56.1-35.2 2.1-1.3 2.1-1.3 7.7-4.8 2.3-1.4c.3-.2.6-.3.9-.2.2 0 .3.1.4.2.1.2.2.4.2.7l.1 1.9z" fill="#A58067"/><path d="M172.4 287.1c-.2 0-.6 0-.9.2l-2.3 1.4-68 42.6c-.6.3-1 1-1.2 1.6-.1.3-.1.6-.1.8l.1 2.1c0 .3.1.6.3.7l-3.4-2-.3-.2c-.1-.1-.2-.4-.2-.7l-.1-2.1c0-.9.6-2 1.4-2.5l70.3-44c.4-.2.7-.3 1-.2l.2.1 3.2 2.2z" fill="#C69A7B"/><path d="M169 285.1l-.2-.1c.1 0 .2.1.2.1z" fill="#B28C6E"/><path d="M165.5 381.6l-.7-.4-3.3-1.9-.3-.2c-.1-.1-.1-.2-.2-.3l-.1-.3-1.7-4.1-23.7-59.1-1.7-4.3-1-2.4-.5-1.2-2.1-5.3-1.4-3.6-1.5-3.7-1.8-4.5-1-2.6-.3-.7-1.1-2.8-.9-2.3-.6-1.4-.4-1-1.7-4.3-1-2.5-.8-2.1-1.5-3.7-3.1-7.7-1-2.4-1-2.5-6.6-16.4-1-2.4-.7-1.7c-.3-.7.1-1.8.9-2.5l3.3-3.2c.5-.5 1-.7 1.4-.5l.3.2.2.1.2.1 3.7 2.1c-.4-.1-.9 0-1.4.5l-1 1-2.2 2.2c-.7.7-1.1 1.9-.9 2.5l.2.4 7.6 19 2.4 6.1 3.1 7.7 1.4 3.4.1.4.8 2v.1l1.4 3.5 1.7 4.1v.1l1.5 3.7.8 1.9.3.9 3.1 7.7 1.5 3.7 1.4 3.6.4 1.1.5 1.3.9 2.3 1.7 4.3 25.4 63.3.3.8v.1l1.3 3.2.2.4c.1 0 .2.1.2.2z" fill="#C69A7B"/><path d="M171.1 377.2s0 .1-.1.1c-.2.3-.3.5-.6.7l-1.8 1.8-1.5 1.4c-.5.4-.9.6-1.3.6-.2 0-.3-.1-.4-.2-.1-.1-.1-.2-.2-.2l-.2-.4-1.3-3.2v-.1l-.3-.8-25.4-63.3-1.7-4.3-.9-2.3-.5-1.3-.4-1.1-1.4-3.6-1.5-3.7-3.1-7.7-.3-.9-.8-1.9-1.5-3.7v-.1l-1.7-4.1-1.4-3.5v-.1l-.8-2-.1-.4-1.4-3.4-3.1-7.7-2.4-6.1-7.6-19-.2-.4c-.3-.7.1-1.8.9-2.5l2.2-2.2 1-1c.5-.5 1-.7 1.4-.5l.2.1c.1.1.2.2.2.3l15 37.5 3.1 7.7 1.5 3.7.8 2.1 3.1 7.8 1.5 3.7 1.1 2.8 2.3 5.7.6 1.4.9 2.1 1.7 4.3 26.5 66.1c.3.5.2 1.2-.1 1.8z" fill="#A58067"/><path d="M141.2 309.4c0 .9-.7 2.1-1.5 2.6s-1.5.1-1.5-.8.7-2.1 1.5-2.6 1.5-.1 1.5.8zm-85.4-67.1l-6.2 3.6c-1.8 1-3-.4-2.2-2.7l3.1-8.6c.9-2.5 3.5-4 4.4-2.5l3.1 5.1c.8 1.2-.4 4-2.2 5.1zm71.9 46.8l-6.2 3.6c-1.8 1-3-.4-2.2-2.7l3.1-8.6c.9-2.5 3.5-4 4.4-2.5l3.1 5.1c.8 1.3-.4 4.1-2.2 5.1z" fill="#3F403B"/><path d="M83.8 397.2l-1.4 4.6-46.6-26.9-4.4-2.5-14.8-8.6-1.8-1c-1.1-.7-1.5-2.1-.9-3.2s2.1-1.5 3.2-.9l.8.5 18 10.4 4.4 2.5 43.5 25.1z" fill="#B28C6E"/><path d="M201.7 109.9c3 1.7 3 4.6 0 6.3-3 1.7-7.9 1.7-10.9 0s-3-4.6 0-6.3c3-1.7 7.9-1.7 10.9 0z" fill="#BDB0AA"/><path d="M202.2 95.5l-2.7 18.1c0 1-.6 2-1.9 2.7-.9.5-2 .9-3.1 1-2.2.3-4.5 0-6.2-1-1.3-.7-1.9-1.7-1.9-2.7l-2.7-18.1h18.5z" fill="url(#paint0_linear)"/><path d="M202.2 95.5c0 .3 0 .6-.1.9-.3 1.1-1.2 2.1-2.6 2.9-1.3.7-2.8 1.2-4.4 1.4-3.1.4-6.4 0-8.8-1.4-3.7-2.1-3.7-5.5 0-7.6 3.7-2.1 9.6-2.1 13.2 0 1.8 1.1 2.7 2.5 2.7 3.8z" fill="#EACE3C"/><path d="M201.3 95.5c0 1-.7 2-2 2.9-.1.1-.2.1-.3.2-.6.3-1.2.6-1.9.8-1.3.4-2.7.6-4.3.6-2.3 0-4.5-.5-6.2-1.5-.1 0-.2-.1-.3-.2-1.3-.8-2-1.8-2-2.9 0-1.1.8-2.2 2.3-3 1.6-.9 3.8-1.5 6.2-1.5h.7c2.1.1 4 .6 5.5 1.4 1.5 1.1 2.3 2.1 2.3 3.2z" fill="#ED7F1D"/><path d="M192.9 91.1c1.2-.1 2.4 0 3.6.3 1.2.3 2.3.7 3.3 1.4.5.4.9.8 1.3 1.3.3.5.5 1.2.4 1.8-.1.6-.5 1.2-.9 1.6-.4.4-.9.8-1.5 1 .5-.3 1-.7 1.4-1.1.4-.4.7-1 .8-1.5.1-.6-.1-1.1-.4-1.6-.3-.5-.7-.9-1.2-1.2-.9-.7-2.1-1.1-3.2-1.5-.6-.2-1.2-.3-1.7-.4-.7-.1-1.3-.1-1.9-.1z" fill="#FFDBC0"/><path d="M197.2 99.4c-1.3.4-2.7.6-4.3.6-2.3 0-4.5-.5-6.2-1.5-1.5-.8-2.3-1.9-2.3-3s.8-2.2 2.3-3c1.6-.9 3.8-1.5 6.2-1.5h.9c0 .1-1.8 7.3 3.4 8.4zm4.9-2.9l-2.6 17.2c0 1-.6 2-1.9 2.7-.9.5-2 .9-3.1 1 1.3-6.8.6-16.4.6-16.4l.1-.2c1.6-.2 3.1-.7 4.4-1.4 1.3-.9 2.2-1.9 2.5-2.9z" fill="#BB6417"/><path d="M199.3 98.4c-.1.1-.2.1-.3.2-.6.3-1.2.6-1.9.8-1.3.4-2.7.6-4.3.6-2.3 0-4.5-.5-6.2-1.5-.1 0-.2-.1-.3-.2.1-.1.3-.2.4-.3 3.3-1.9 8.6-1.9 11.9 0 .4.2.6.3.7.4z" fill="#7C593A"/><path d="M129 118.2h6.4l17.8-10.2-5.7-2.2-18.5 12.4z" fill="#BDB0AA"/><path d="M147.9 107.3L129 118.2l-24.2-13.9 18.9-10.9 24.2 13.9z" fill="#AFAFAF"/><path d="M131.6 113.5L129 115l-24.2-13.9 2.6-1.6 24.2 14z" fill="#A7C476"/><path d="M147.9 104.1l-16.3 9.4-24.2-14 16.3-9.4 24.2 14z" fill="#D8D8D8"/><path d="M104.8 101.1v3.2l24.2 13.9V115l-24.2-13.9z" fill="#C4D8A2"/><path d="M147.5 104.3v3.2L129 118.2V115l18.5-10.7z" fill="#BFBFBF"/><path d="M127.7 105.6c-2 0-3.9-.4-5.4-1.3-1.5-.9-2.3-2-2.3-3.3 0-1.3.8-2.4 2.3-3.3 3-1.7 7.9-1.7 10.9 0 1.5.9 2.3 2 2.3 3.3 0 1.3-.8 2.4-2.3 3.3-1.6.9-3.6 1.3-5.5 1.3zm0-8.6c-1.9 0-3.7.4-5.2 1.2-1.3.8-2.1 1.8-2.1 2.8 0 1.1.7 2.1 2.1 2.8 2.8 1.6 7.5 1.6 10.3 0 1.3-.8 2.1-1.8 2.1-2.8 0-1.1-.7-2.1-2.1-2.8-1.4-.8-3.3-1.2-5.1-1.2z" fill="#3487B0"/><path d="M125.1 100.2c0 .1 0 .1 0 0l.1.1.1.1v.6l-.1.1-.1.1s-.1 0-.1.1l-.1.1h-.4v-.1l-.1-.1-.1-.1c-.1-.1-.1-.1-.1-.2l-.1-.1-.4-.4-.1-.1-.1-.1-.2-.2c-.1-.1-.1-.2-.1-.2v-.1h.3l.1.1v.1l.1.1.1.1.1.1.3.3.1.1v.2-.3c.1-.1.1-.2.2-.2 0 0 .1 0 .1-.1h.5zm-.6 1l.1.1.1.1h.1l.1-.1.1-.1v-.2l.1-.2v-.5c-.1 0-.1-.1-.1-.1h-.2c-.1 0-.1.1-.2.2v.5c-.2.2-.2.2-.1.3zm1.1-.7l-.1-.1-.1-.1-.1-.1-.1-.1c-.2-.1-.2-.1-.2-.2l-.3-.3-.1-.1-.1-.1-.1-.1s0-.1-.1-.1c0 0 0-.1-.1-.1l-.1-.1.1-.1h.1l.1.1.3.2.1.1.1.1.2.2.1.1.1.1v.1l.1.1.1.1.2.1s.1 0 .1.1l.1.1h.3v.1l.1.1h-.3v-.1h-.1l-.1-.1-.2.1c.1 0 .1 0 0 0zm2.4-.7h-.9v.5s0 .1-.1.1c0 .1-.1.1-.2.1h-.4l-.2-.2v-.1c0-.1-.1-.1-.1-.1v-.7c.1-.1.1-.1.2-.1h.3l.1.1.1.1s.1 0 .1.1l.1.1.1.1.1.1h.4l.4-.1zm-1.5-.3l-.1-.1h-.2l-.1.1v.3c0 .1 0 .1.1.1l.1.2.1.1h.1l.1.1.1-.1v-.3c0-.1 0-.1-.1-.1l-.1-.3c.1 0 .1 0 0 0zm1.5.2h-.2l.1-.1s0-.1.1-.1h.1v.1l-.1.1zm.6-.3h-.2l.1-.1s0-.1.1-.1h.1v.1l-.1.1zm.6 3.2l.1.1.1.1v.6l-.1.1-.1.1s-.1 0-.1.1l-.1.1h-.4v-.1l-.1-.1-.1-.1c-.1-.1-.1-.1-.1-.2l-.1-.1-.4-.4-.1-.1-.1-.1-.2-.2c-.1-.1-.1-.2-.1-.2v-.1h.3l.1.1v.1l.1.1.1.1.1.1.3.3.1.1v.2-.3c.1-.1.1-.2.2-.2 0 0 .1 0 .1-.1h.5zm-.6.9c0 .1 0 .1 0 0 0 .1 0 .1 0 0l.1.1.1.1h.1l.1-.1.1-.1v-.2l.1-.2v-.5c-.1 0-.1-.1-.1-.1h-.2c-.1 0-.1.1-.2.2v.5c-.2.2-.2.2-.1.3zm1.1-.7l-.1-.1-.1-.1-.1-.1-.1-.1c-.2-.1-.2-.1-.2-.2l-.3-.3-.1-.1-.1-.1-.1-.1s0-.1-.1-.1c0 0 0-.1-.1-.1l-.1-.1.1-.1h.1l.1.1.3.2.1.1.1.1.2.2.1.1.1.1.1.1.1.1.2.1s.1 0 .1.1l.1.1h.3v.1l.1.1h-.4l-.1-.1-.2.1c.1.1.1 0 0 0z" fill="#3487B0"/><path d="M132.1 102.2h-.9v.5l-.1.1c0 .1-.1.1-.2.1h-.4l-.2-.2-.1-.1c0-.1-.1-.1-.1-.1v-.7c.1-.1.1-.1.2-.1h.3l.1.1.1.1s.1 0 .1.1l.1.1.1.1.1.1h.4l.5-.1c0-.1 0-.1 0 0 0-.1 0 0 0 0zm-1.5-.3l-.1-.1h-.2l-.1.1v.3c0 .1 0 .1.1.1l.1.2.1.1.1.1.1-.1v-.3c0-.1 0-.1-.1-.1v-.3c.1 0 0 0 0 0zm1.5.1h-.2l.1-.1s0-.1.1-.1h.1v.1c0 .1 0 .1-.1.1zm.6-.3h-.2l.1-.1s0-.1.1-.1h.1v.1c0 .1 0 .1-.1.1zm.5-.3h-.2l.1-.1s0-.1.1-.1h.1v.1s0 .1-.1.1zm-16.3-2.9c-.1 0-.2 0-.2-.1-.1-.1 0-.3.1-.4l6-3.5c.1-.1.3 0 .4.1.1.1 0 .3-.1.4l-6 3.5h-.2zm15.5 10.7c-.2 0-.4-.1-.5-.3-.1-.3-.1-.6.2-.7l8.3-4.8c.3-.1.6-.1.7.2.1.3.1.6-.2.7l-8.3 4.8c-.1.1-.1.1-.2.1z" fill="#3487B0"/><path d="M132 116.5l-3 1.7V115l2.6-1.5c-.1.1-.6.4-.9 1 0 .1-.1.2-.1.2-.1.1-.1.3-.2.4v1.2c0 .1.1.2.1.3l.1.1c.1.1.2.1.3.2h.2c.2-.1.5-.2.9-.4z" fill="#898989"/><path d="M147.5 104.8l-17 9.9c0-.1.1-.2.1-.2l16.9-9.7zm0 .5l-17.2 10v-.2l17.2-9.8zm0 .5l-17.3 10.1v-.2l17.3-9.9zm0 .4l-17.2 10v-.1l17.2-9.9zm0 .5l-17 9.9-.1-.1 17.1-9.8zm0 .5l-16.5 9.6h-.2l16.7-9.6z" fill="#898989"/><path d="M232.4 168.7l1.5.7c1.2.5 2.5.4 3.6-.2l23.8-13.4c.6-.3.6-1.2 0-1.5l-5.6-3.1-23.3 17.5z" fill="#BDB0AA"/><path d="M185.6 136.5l-3 2.1 3-2.1z" fill="#A5A5A5"/><path d="M185.7 136v.1l-.1.1-3 2.1v.1h-.6l-2.7-1.5h-.1v-.4h.1l3-2.2h.2v-.1h.2l.1.1h.1l2.7 1.5.1.1v.1zm3.8 2.1v.2h-.1l-3 2.2h-.2v.1h-.3l-.1-.1-2.7-1.5h-.1v-.3l.1-.1 3-2.1v-.1h.6l2.7 1.5v.1h.1v.1zm4.7-2.1v.1l-.1.1-2.6 1.8-.1.1h-.5l-7.4-4.2h-.1v-.1h-.1v-.2h.1v-.1h.1l2.5-1.8h.1v-.1h.6l7.4 4.2.1.1v.1z" fill="#F2F0E9"/><path d="M189.6 142.9l-2.7-1.5h-.1v-.4.1h.1l2.7 1.6v.2z" fill="#BFBDB8"/><path d="M193.2 140.8l-3 2.1 3-2.1z" fill="#A5A5A5"/><path d="M193.3 140.3v.1l-.1.1-3 2.1h-.1v.1h-.5l-2.7-1.6h-.1v-.1h-.1v-.1h.1v-.1l.1-.1 3-2.1h.1v-.1h.5v.1l2.7 1.5h.1v.2zm2.7-7.9l-.1.1-.1.1-2.5 1.8h-.1v.1h-.5v-.1l-5.6-3.1h-.1v-.3h.1v-.1l2.6-1.8h.1v-.1h.4l.1.1 5.5 3.1h.1v.1h.1v.1z" fill="#F2F0E9"/><path d="M194.3 145.6l-3.6-2v-.1h-.1v-.3l.1.1 3.6 2v.3z" fill="#BFBDB8"/><path d="M198 142.9v.2h-.1l-3 2.2h-.2v.1h-.3v-.1h-.1l-3.6-2-.1-.1v-.3h.1l3-2.2h.2v-.1h.3v.1h.1l3.6 2h.1v.2zm.7-13.7l-.1.1-.1.1-2.5 1.8h-.1v.1h-.6l-4.5-2.6-.1-.1v-.2l.1-.1 2.5-1.8.1-.1h.6l4.5 2.6h.1v.1h.1v.1z" fill="#F2F0E9"/><path d="M197.9 138.6l-2.5 1.9v-.1l2.5-1.8z" fill="#A5A5A5"/><path d="M198 138.1v.1l-.1.1-2.6 1.9h-.2l-.1.1h-.1l-.1-.1h-.1l-2.7-1.5-.1-.1v-.2l.1-.1 2.6-1.8v-.1h.6l2.7 1.5v.1h.1v.1zm1.7-3.6v.1l-.1.1-2.5 1.8h-.1l-.1.1h-.5l-2.7-1.6h-.1v-.3h.1v-.1l2.6-1.8h.1l.1-.1h.3l.1.1 2.7 1.5h.1v.2zm.7-9v.2h-.1v.1l-2.6 1.8h-.1v.1h-.4l-.1-.1-2.7-1.5-.1-.1v-.2h.1v-.1l2.6-1.8h.1v-.1h.5v.1l2.7 1.5h.1v.1z" fill="#F2F0E9"/><path d="M213.4 156.3l-17.9-10v-.1h-.1v-.1l-.1-.3.1.1.1.1 17.8 10 .1.3z" fill="#BFBDB8"/><path d="M217.1 153.6v.1h-.1v.1l-3 2.1-.1.1h-.6l-17.8-10-.1-.1-.1-.1v-.1h.1v-.1h.1l3-2.2h.1l.1-.1h.3l.1.1 17.9 10 .1.1v.1zm-15.3-13.4v.2h-.1v.1l-2.6 1.8h-.1l-.1.1h-.3l-.1-.1-2.7-1.5h-.1v-.3h.1v-.1l2.5-1.8h.1l.1-.1h.4l.1.1 2.7 1.5.1.1zm.7-8.9v.1l-.1.1-2.6 1.9h-.2l-.1.1h-.1l-.1-.1h-.1l-2.7-1.5h-.1v-.4h.1l2.5-1.8h.1v-.1h.6l1.3.8 1.4.7v.1h.1v.1zm1 5.3v.2h-.1l-2.6 1.8v.1h-.6l-2.7-1.5v-.1h-.1v-.2l.1-.1 2.6-1.8v-.1h.3l.1-.1v.1h.2l2.7 1.5.1.1v.1zm2.1 5.7v.2h-.1v.1l-2.6 1.8-.1.1h-.5l-2.7-1.5v-.1h-.1v-.3h.1l2.5-1.9h.2l.1-.1h.2l.1.1h.1l2.7 1.5.1.1zm.7-8.9v.1l-.1.1v.1l-2.6 1.8h-.1v.1h-.5v-.1l-2.7-1.5h-.1v-.3h.1v-.1l2.5-1.8h.1l.1-.1h.4v.1h.1l2.7 1.5v.1h.1zm1 5.3v.2h-.1l-2.6 1.9h-.1l-.1.1h-.3v-.1h-.1l-2.7-1.5-.1-.1v-.2h.1v-.1l2.6-1.8.1-.1h.5l2.7 1.6h.1v.1z" fill="#F2F0E9"/><path d="M207.9 130l-2.6 1.8 2.6-1.8z" fill="#A5A5A5"/><path d="M206.1 146.9l-2.7-1.5v-.1h-.1v-.3.1h.1l2.7 1.5v.3z" fill="#BFBDB8"/><path d="M209.4 144.5v.1l-.1.1-2.6 1.8v.1h-.6l-2.7-1.5h-.1v-.4h.1l2.5-1.8.1-.1h.6l2.7 1.5v.1h.1v.1zm.7-8.9v.1h-.1v.1l-2.6 1.8-.1.1h-.5l-2.7-1.5-.1-.1v-.3h.1l2.5-1.9h.2l.1-.1h.2l.1.1h.1l2.7 1.5v.1h.1v.1zm1 5.3v.1l-.1.1-2.6 1.8h-.1v.1h-.4l-.1-.1-2.7-1.5h-.1v-.3h.1v-.1l2.6-1.8.1-.1h.4l.1.1 2.7 1.5h.1v.2z" fill="#F2F0E9"/><path d="M208.5 134.3l-2.7-1.5 2.7 1.5z" fill="#FAFAFA"/><path d="M211.8 131.9v.2h-.1l-2.6 1.9h-.1l-.1.1h-.3l-.1-.1-2.7-1.5h-.1v-.3l.1-.1 2.6-1.8.1-.1h.5l2.7 1.6h.1v.1z" fill="#F2F0E9"/><path d="M204.9 131.9l.1.1h-.1l-.1-.1h.1zm.1 0h.1l-.1.1v-.1zm.3-.1l2.6-1.8-2.6 1.8z" fill="#fff"/><path d="M211 128.2v.1l-.1.1-1.4 1h-.1v.1h-.6l-2.8-1.6v-.1h-.1v-.2l.1-.1 1.4-1h.1v-.1h.5l2.9 1.6v.1h.1v.1zm2.2 18.4v.2h-.1v.1l-2.6 1.8h-.1l-.1.1h-.3l-.1-.1-2.7-1.5h-.1v-.3l.1-.1 2.5-1.8h.1v-.1h.5l.1.1 2.7 1.5h.1v.1zm.7-8.9v.1h-.1v.1h-.1l-2.5 1.8v.1h-.3v.1h-.1v-.1h-.2l-2.7-1.5h-.1v-.3l.1-.1 2.5-1.8h.1v-.1h.6l2.6 1.5.1.1.1.1zm1 5.3v.1l-.1.1-2.6 1.8-.1.1h-.5l-2.7-1.5v-.1h-.1v-.2l.1-.1 2.6-1.8v-.1h.3l.1-.1v.1h.2l2.7 1.5.1.1v.1zm.7-9v.2h-.1v.1l-2.6 1.8h-.1v.1h-.5v-.1l-2.7-1.5h-.1v-.3h.1v-.1l2.6-1.8h.1v-.1h.4v.1h.1l2.7 1.5.1.1z" fill="#F2F0E9"/><path d="M213.6 131.8l-.2.1.2-.1z" fill="#A5A5A5"/><path d="M217 148.7v.2h-.1v.1l-2.6 1.8-.1.1h-.5l-2.7-1.6h-.1v-.3h.1v-.1l2.5-1.8h.2v-.1h.4v.1h.1l2.7 1.5v.1h.1zm.7-8.9v.1l-.1.1-.1.1-2.5 1.8h-.1l-.1.1h-.4v-.1l-2.7-1.5h-.1v-.4h.1l2.5-1.8h.1l.1-.1h.4l.1.1 2.6 1.5h.1l.1.1zm1 5.3v.2h-.1l-2.6 1.8v.1h-.2l-.1.1h-.1l-.1-.1h-.1l-2.7-1.5-.1-.1v-.2l.1-.1 2.6-1.8.1-.1h.5l2.7 1.5v.1h.1v.1zm.7-8.9v.1l-.1.1-2.6 1.8v.1h-.6l-2.7-1.5v-.1h-.1v-.3h.1l2.6-1.8v-.1h.6l2.7 1.5v.1h.1v.1zm-.5-3.6v.1h-.1v.1h-.1l-1.4 1v.1h-.6l-2.8-1.6-.1-.1v-.2l.1-.1 1.4-1 .1-.1h.5v.1l2.8 1.5.1.1v.1h.1zm2.9 23.6v.1l-.1.1-3 2.2h-.2v.1h-.3l-.1-.1h-.1l-3.6-2-.1-.1v-.2h.1v-.1l3-2.1.1-.1h.6l3.6 2v.1h.1v.1z" fill="#F2F0E9"/><path d="M220.7 151.4l-2.6 1.8 2.6-1.8z" fill="#A5A5A5"/><path d="M220.8 150.9v.1h-.1v.1l-2.6 1.8v.1h-.6l-2.7-1.5v-.1h-.1v-.3h.1l2.5-1.8.1-.1h.2v-.1h.1l.1.1h.2l2.7 1.5v.1h.1v.1zm.7-8.9v.1h-.1l-.1.1-2.5 1.8h-.1v.1h-.5l-2.7-1.6h-.1v-.1h-.1v-.1h.1v-.1l.1-.1 2.5-1.8h.2v-.1h.4v.1h.1l2.6 1.5h.1v.1h.1v.1z" fill="#F2F0E9"/><path d="M222.4 147.8l-2.5 1.8 2.5-1.8z" fill="#A5A5A5"/><path d="M222.5 147.3v.1h-.1v.1l-2.6 1.8h-.1v.1h-.5v-.1l-2.7-1.5h-.1v-.3h.1v-.1l2.6-1.8h.1v-.1h.5v.1l2.7 1.5h.1v.2zm.7-9v.1l-.1.1-2.6 1.9h-.2v.1h-.3v-.1h-.1l-2.7-1.5-.1-.1v-.2l.1-.1 2.6-1.8v-.1h.6l2.7 1.5v.1h.1v.1zm-.4-3.5v.1l-.1.1-1.4 1-.1.1h-.6l-2.8-1.6v-.1h-.1v-.2h.1v-.1l1.4-1h.1l.1-.1h.4v.1l2.9 1.5v.1h.1v.1zm1.8 18.2v.1l-.1.1h-.1l-2.5 1.9h-.2v.1h-.3l-.1-.1-2.7-1.5h-.1v-.4h.1l2.5-1.8h.1v-.1h.6l2.6 1.6h.1l.1.1zm1 5.4v.1l-.1.1-3 2.1h-.1v.1h-.5l-2.7-1.5-.1-.1v-.1h-.1v-.1h.1v-.1h.1l3-2.2h.1v-.1h.5v.1l2.7 1.5h.1v.2z" fill="#F2F0E9"/><path d="M222 146.5l-2.7-1.5-.1-.1v-.3l.1.1 2.7 1.5v.3z" fill="#BFBDB8"/><path d="M225.3 144.1v.1h-.1v.1h-.1l-2.5 1.8-.1.1h-.2v.1h-.1l-.1-.1h-.1l-2.7-1.5-.1-.1-.1-.1.1-.1v-.1h.1l2.5-1.8.1-.1h.6l2.6 1.5h.1v.1h.1v.1zm1 5.3v.1l-.1.1-2.6 1.8-.1.1h-.5l-2.7-1.5v-.1h-.1v-.3h.1l2.6-1.9h.2v-.1h.3v.1h.1l2.7 1.5.1.1v.1z" fill="#F2F0E9"/><path d="M223.7 142.8l-2.7-1.5h-.1v-.4.1h.1l2.7 1.5v.3z" fill="#BFBDB8"/><path d="M227 140.4v.2h-.1v.1l-2.6 1.8h-.1v.1h-.5v-.1L221 141h-.1v-.3h.1v-.1l2.5-1.8h.1l.1-.1h.4l.1.1 2.7 1.5.1.1z" fill="#F2F0E9"/><path d="M224.6 138.6l-2.8-1.6h-.1v-.2l-.1-.2h.1v.1h.1l2.8 1.6v.3z" fill="#BFBDB8"/><path d="M226.7 137v.2h-.1l-1.4 1v.1h-.6l-2.8-1.6h-.1v-.1h-.1v-.2h.1v-.1h.1l1.3-1h.1l.1-.1h.4l.1.1 2.8 1.5v.1h.1v.1z" fill="#F2F0E9"/><path d="M225.1 157.5l-2.7-1.5 2.7 1.5z" fill="#FAFAFA"/><path d="M228.4 155.1v.1l-.1.1v.1h-.1l-2.5 1.8h-.1l-.1.1h-.4v-.1l-2.7-1.5h-.1v-.3l.1-.1 2.5-1.8h.1l.1-.1h.4l.1.1 2.6 1.5h.1v.1h.1zm-.8 6.7v.2h-.1l-1.2.9h-.1l-.1.1h-.3l-.1-.1-2.7-1.5h-.1v-.3l.1-.1 1.2-.8v-.1h.6l2.7 1.5.1.1v.1z" fill="#F2F0E9"/><path d="M225.8 148.6l-2.7-1.5h-.1v-.4.1h.1l2.7 1.5v.3z" fill="#BFBDB8"/><path d="M229.1 146.2v.1l-.1.1-.1.1-2.5 1.8h-.2v.1h-.3l-.1-.1-2.7-1.5h-.1v-.1h-.1v-.1l.1-.1v-.1h.1l2.5-1.8.1-.1h.5l2.7 1.6h.1l.1.1z" fill="#F2F0E9"/><path d="M226.8 153.9l-2.7-1.5 2.7 1.5z" fill="#FAFAFA"/><path d="M230.1 151.5v.2h-.1l-2.6 1.9h-.2l-.1.1h-.1l-.1-.1h-.1l-2.7-1.5-.1-.1v-.2l.1-.1 2.6-1.8v-.1h.6l2.7 1.5v.1h.1v.1zm.7-8.9v.1h-.1v.1l-2.6 1.8-.1.1h-.5l-2.7-1.5v-.1h-.1v-.3h.1l2.5-1.9h.2l.1-.1h.2v.1h.2l2.7 1.5v.1h.1v.1zm-.1-3.4v.1h-.1v.1l-.1.1-1.4.9v.1h-.6l-2.8-1.6h-.1v-.3l.1-.1 1.4-1h.1l.1-.1h.3l.1.1 2.8 1.6h.1v.1h.1z" fill="#F2F0E9"/><path d="M228.9 159.7l-2.7-1.5v-.1h-.1v-.4.1l.1.1 2.7 1.5v.3z" fill="#BFBDB8"/><path d="M232.2 157.3v.1h-.1v.1h-.1l-2.5 1.8h-.1v.1h-.5l-2.7-1.5-.1-.1v-.1h-.1v-.1h.1v-.1h.1l2.5-1.8.1-.1h.1l.1-.1h.2l.1.1h.1l2.6 1.5h.1v.1h.1v.1zm.7-9v.1h-.1v.2h-.1l-2.5 1.8h-.1v.1h-.5v-.1l-2.7-1.5h-.1l-.1-.1v-.1l.1-.1.1-.1 2.5-1.8h.2v-.1h.4v.1l2.7 1.5h.1v.1h.1z" fill="#F2F0E9"/><path d="M230.6 156l-2.7-1.5 2.7 1.5z" fill="#FAFAFA"/><path d="M233.9 153.7v.1h-.1v.1l-2.6 1.8h-.1l-.1.1h-.3l-.1-.1-2.7-1.5h-.1v-.3l.1-.1 2.6-1.8.1-.1h.4l.1.1 2.7 1.5h.1v.2zm.7-9v.1l-.1.1-2.6 1.9h-.2l-.1.1h-.1l-.1-.1h-.1l-2.7-1.5-.1-.1v-.2l.1-.1 2.5-1.8.1-.1h.6l2.7 1.5v.1h.1v.1z" fill="#F2F0E9"/><path d="M234.5 142l-1.4 1v-.1l1.4-.9z" fill="#A5A5A5"/><path d="M234.6 141.4v.2h-.1v.1l-1.4 1h-.2l-.1.1h-.2v-.1h-.2l-2.8-1.6-.1-.1v-.2h.1v-.1l1.4-1h.2v-.1h.4v.1l2.9 1.6h.1v.1zm6.1 20.7v.1l-.1.1-2.6 1.8v.1h-.6L230 160l-.1-.1v-.2l.1-.1 2.5-1.8h.1v-.1h.6l7.4 4.2.1.1v.1z" fill="#F2F0E9"/><path d="M233.3 167.5l-2.7-1.6h-.1v-.4.1l.1.1 2.7 1.5v.3z" fill="#BFBDB8"/><path d="M235.2 166v.2h-.1v.1l-1.2.8-.1.1h-.5l-2.7-1.5-.1-.1v-.1h-.1v-.1h.1v-.1h.1l1.2-.9.1-.1h.4l.1.1 2.7 1.5.1.1zm1.5-15.5l-.1.1v.1h-.1l-2.5 1.8-.1.1h-.5l-2.7-1.5-.1-.1h-.1v-.2h.1v-.1h.1l2.5-1.8.1-.1h.5l2.7 1.5h.1v.1l.1.1zm1 5.3v.1h-.1v.1l-2.6 1.8-.1.1h-.5l-2.7-1.6h-.1v-.3h.1v-.1l2.6-1.8h.1l.1-.1h.3v.1h.1l2.7 1.5.1.1v.1zm.7-9v.2h-.1v.1l-2.6 1.8h-.1l-.1.1h-.3l-.1-.1-2.7-1.5-.1-.1v-.2l.1-.1 2.5-1.8h.1l.1-.1h.4l.1.1 2.7 1.5.1.1zm.1-3.1v.1h-.1v.1l-1.4 1h-.2l-.1.1h-.2v-.1h-.1l-2.8-1.6h-.1v-.1h-.1v-.1l.1-.1.1-.1 1.4-1h.1v-.1h.4v.1h.1l2.8 1.6h.1v.2zm2 8.9v.1h-.1v.1l-.1.1-2.5 1.8h-.2l-.1.1h-.2l-.1-.1h-.1l-2.6-1.5h-.1v-.1h-.1v-.2h.1v-.1h.1l2.5-1.8h.1v-.1h.5l2.7 1.5.1.1v.1h.1zm3.9 6.9v.1h-.1v.1h-.1l-2.5 1.8-.1.1h-.6l-5.5-3.1v-.1h-.1v-.3h.1l2.5-1.8.1-.1h.2l.1-.1h.1v.1h.2l5.5 3.1h.1v.1l.1.1z" fill="#F2F0E9"/><path d="M238.9 151.4l-2.7-1.6h-.1v-.4.1h.1l2.7 1.6v.3z" fill="#BFBDB8"/><path d="M242.2 148.9v.2h-.1v.1l-2.6 1.8-.1.1h-.5l-2.7-1.6h-.1v-.3l.1-.1 2.5-1.8h.2v-.1h.3l.1.1h.1l2.7 1.5v.1h.1zm.3-3.1v.1h-.1v.1l-.1.1-1.4 1h-.2v.1h-.2l-.1-.1h-.1l-2.8-1.6h-.1v-.3h.1v-.1l1.4-1h.2v-.1h.3v.1h.1l2.8 1.6h.1v.1h.1zm1.8 8.9v.1h-.1v.1l-.1.1-2.5 1.8h-.1l-.1.1h-.4l-.1-.1-2.6-1.5h-.1v-.1h-.1v-.1l.1-.1.1-.1 2.5-1.8h.1l.1-.1h.4v.1l2.7 1.5h.1v.1h.1zm1.7-3.6v.1h-.1v.1l-2.6 1.8v.1h-.6l-2.7-1.5-.1-.1v-.3h.1l2.5-1.8.1-.1h.6l2.7 1.5v.1h.1v.1zm.4-3.1v.2h-.1v.1l-1.4 1h-.2v.1h-.4v-.1h-.1l-2.8-1.6h-.1v-.3h.1v-.1l1.4-1h.3v-.1h.1l.1.1h.1l2.9 1.6.1.1zm1.6 8.9v.2h-.1l-2.5 1.8h-.1v.1h-.6l-2.6-1.5-.1-.1-.1-.1v-.1h.1v-.1h.1l2.5-1.9h.3v-.1h.1l.1.1h.1l2.7 1.5h.1v.2zm3.7-2.6v.1h-.1v.1l-2.6 1.8v.1h-.6l-4.6-2.6h-.1v-.3l.1-.1 2.6-1.8h.1v-.1h.4l.1.1 4.6 2.5v.1h.1v.1zm-1.4-4v.1l-.1.1-1.4 1h-.1l-.1.1h-.3l-.1-.1-2.8-1.6h-.1l-.1-.1v-.1l.1-.1.1-.1 1.4-.9v-.1h.2l.1-.1h.1v.1h.2l2.8 1.6h.1v.2zm4 2.1v.1l-.1.1v.1h-.1l-1.4 1h-.1v.1h-.5v-.1l-2.8-1.6h-.1v-.3h.1l1.4-1v-.1h.6l2.8 1.6h.1v.1h.1z" fill="#F2F0E9"/><path d="M259.8 151.6l-.2-.4-.3-.2h-.4l-.5.1c-.7.4-22.9 16.2-23.6 16.7l-.2.1-.2.1-.2.1-.2.1h-.8l.1.7h.8l.2-.1.2-.1.2-.1.2-.1s22.9-12.9 23.1-13c1.1-.5 2-1.8 2-3.5l-.2-.4zm-26.7-8.7l1.4-1-1.4 1zm-3.7 12.7l2.7 1.5-2.7-1.5zm-1.5-1.1l2.7 1.5-2.7-1.5zm-3.7-15.7l2.7 1.5-2.7-1.5zm-.1 13.6l2.7 1.5-2.7-1.5zm-1.7 3.6l2.7 1.5-2.7-1.5zm-2.5-6.4l2.5-1.8-2.5 1.8zm-1.8 3.6l2.5-1.8-2.5 1.8zm-4.7-21.3l.1-.1-.1.1zm-7.6.9l2.7 1.5-2.7-1.5zm-10.4 7.6l2.5-1.8-2.5 1.8zm-.2-4l2.7 1.5-2.7-1.5zm-5 6.5l3-2.1-3 2.1zm-7.6-4.3l3-2.1-3 2.1z" fill="#737373"/><path d="M203 119.5l-.4-.1-.5.1-.5.3-23.1 16.4-.2.1-.1.1-.1.1-.1.1v.5l.1.1.1.1.1.1.1.1 53.8 30.2.2.1.2.1h1.2l.2-.1.2-.1.2-.1.2-.1 23.1-16.4.5-.3.5-.1h.4L203 119.5zm43.8 29h.7l2.8 1.6v.2l-.1.1-1.4 1h-.6l-2.8-1.6v-.3l1.4-1zm-2.5 6.5v.1l-.1.1-2.5 1.8h-.4l-2.7-1.5v-.3l2.6-1.8h.6l2.7 1.5v.1h-.2zm-18.2 2.7v-.1l2.6-1.8h.7l2.7 1.5v.4l-2.5 1.8h-.5l-2.7-1.5-.3-.3zm-3.7-1.7l-.1-.1v-.3l2.6-1.8h.6l2.7 1.5v.4l-2.5 1.8h-.5l-2.8-1.5zm-3.9-2.5v-.1l2.6-1.8h.6l2.7 1.5v.4l-2.5 1.8h-.4l-2.7-1.5-.3-.3zm-3.8-2.1v-.1l2.6-1.8h.6l2.7 1.5v.4l-2.5 1.8h-.5l-2.7-1.5-.2-.3zm-3.8-2.2v-.1l2.5-1.8h.5l2.7 1.5v.4l-2.5 1.8h-.2.1-.3l-2.7-1.5-.1-.3zm-3.8-2.1v-.1l.1-.1 2.5-1.8h.4l2.7 1.5v.4l-.1.1-2.5 1.8h-.5l-2.7-1.5.1-.3zm-3.8-2.1v-.1l2.5-1.8h.6l2.7 1.5v.4l-2.5 1.8h-.5l-2.7-1.5-.1-.3zm-3.8-2.2v-.1l2.5-1.8h.5l2.7 1.5.1.1v.4l-2.5 1.8h-.5l-2.7-1.5-.1-.4zm-3.8-2.1v-.1l2.5-1.8h.4l2.7 1.5v.4l-2.5 1.8h-.4l-2.7-1.5v-.3zm-3.8-2.1v-.1l2.5-1.8h.5l2.7 1.5v.4l-2.5 1.8h-.5L192 139l-.1-.1v-.3zm1.7-3.7v-.1l2.6-1.8h.6l2.7 1.5v.2l-2.5 1.8h-.4l-2.7-1.5-.3-.1zm4.5-6.8v-.1l2.5-1.8h.5l2.7 1.5.1.1v.1l-2.6 1.8h-.5v.3l-2.7-1.5v-.4zm2.8-3.1v.3l-2.8-1.6v-.2l2.8 1.5zm-1.3-3h.1-.1zm12.2 10.2v.1l-2.5 1.8h-.6l-2.7-1.5v-.3l2.5-1.8h.5l2.7 1.5v.1l.1.1zm3.8 2.1v.1l-2.5 1.8h-.5l-2.7-1.5v-.3l2.5-1.8h.5l2.7 1.5v.2zm3.8 2.2v.1l-2.5 1.8h-.5l-2.7-1.5v-.3l.1-.1 2.5-1.8h.5l2.7 1.5v.1l-.1.2zm3.8 2.1v.1l-2.5 1.8h-.6l-2.7-1.5v-.3l.1-.1 2.5-1.8h.5l2.7 1.5.1.1v.1l-.1.1zm3.7 1.7l.1.1v.4l-2.5 1.8h-.5l-2.7-1.5-.1-.1v-.3l2.5-1.8h.5l2.7 1.4zm3.9 2.6v.1l-.1.1-2.5 1.8h-.4l-2.7-1.5v-.3l2.5-1.8h.4l2.7 1.5v.1h.1zm3.8 2.1v.1l-2.5 1.8h-.5l-2.7-1.5v-.3l2.5-1.8h.5l2.7 1.5v.2zm3.8 2.1v.1l-2.5 1.8h-.5l-2.7-1.5v-.3l2.5-1.8h.6l2.7 1.5v.1l-.1.1zm3.8 2.2v.1l-2.5 1.8h-.5l-2.7-1.5v-.3l.1-.1 2.6-1.8h.4l2.7 1.5v.1l-.1.2zm-22.4.3l-.3.1h-.2l-2.7-1.5v-.2l2.6-1.8h.5l2.7 1.5v.3l-2.6 1.6zm-7.2-3.8v-.2l2.6-1.8h.5l2.7 1.5v.2l-2.5 1.8h-.5l-2.7-1.5h-.1zm-3.8-2.1v-.3l2.6-1.8h.6l2.7 1.5v.3l-2.5 1.8h-.5l-2.7-1.5h-.2zm-3.8-2.4v-.1l2.6-1.8h.7l2.7 1.5v.2l-2.5 1.8h-.6l-2.7-1.5-.2-.1zm-3.8-2.1v-.1l.1-.1 2.6-1.8h.7l2.7 1.5.1.1v.2l-2.5 1.8h-.6l-2.7-1.5-.4-.1zm-3.8-2.1v-.1l.1-.1 2.6-1.8h.6l2.7 1.5v.3l-2.5 1.8h-.5l-2.7-1.5-.3-.1zm8.8-3.8l.1.1v.4l-2.6 1.8h-.5l-2.7-1.5v-.3l2.5-1.8h.5l2.7 1.3zm3.9 2.6v.1l-2.5 1.8h-.8l-2.7-1.5v-.3l2.5-1.8h.6l2.7 1.5v.1l.2.1zm3.8 2.1v.1l-2.5 1.8h-.4l-2.7-1.5v-.3l.1-.1 2.5-1.8h.5l2.7 1.5v.1l-.2.2zm3.7 1.7l.1.2v.3l-2.5 1.8h-.5l-2.7-1.5v-.3l2.5-1.8h.5l2.6 1.3zm3.9 2.6v.1l-.1.1-2.5 1.8h-.5l-2.7-1.5v-.3l2.5-1.8h.6l2.7 1.5v.1zm3.8 2.1v.1l-.1.1-2.5 1.8h-.6l-2.7-1.5v-.3l2.5-1.8h.5l2.7 1.5.1.1v.1l.1-.1zm3.7 1.7l.1.1v.4l-2.5 1.8h-.7l-2.7-1.5v-.3l2.5-1.8h.5l2.8 1.3zm3.9 2.5v.1l-2.5 1.8h-.5l-2.7-1.5-.1-.1v-.3l.1-.1 2.5-1.8h.6l2.7 1.5v.1l-.1.3zm-12.7 1.1v-.1l2.6-1.8h.6l2.7 1.5v.2l-2.5 1.8h-.5l-2.7-1.5-.1-.1v-.2l-.1.2zm3.8 2.2v-.1l.1-.1 2.6-1.8h.6l2.7 1.5.1.1v.2l-2.6 1.8h-.6l-2.7-1.5v-.2l-.2.1zm3.8 2.1v-.1l2.6-1.8h.6l2.7 1.5v.4l-2.6 1.8h-.5l-2.7-1.5v-.2l-.1-.1zm6.1-1.1h-.4l-2.7-1.5v-.3l.1-.1 2.5-1.8h.5l2.7 1.5v.4l-2.7 1.8zm-25.9-23v.1l-2.6 1.8h-.8v.3l-2.8-1.6v-.5l2.5-1.8h.5l2.7 1.5.5.2zm-3-2.3l-2.8-1.6v-.2l2.8 1.6v.2zm-5.9 2.1h.5l1.4.8 1.3.7v.4l-.1.1-2.6 1.8h-.7l-2.7-1.5v-.3l2.9-2zm32.6 26.9l-.1-.1v-.2l2.5-1.8h.5l2.7 1.5v.3l-2.6 1.8h-.6l-2.4-1.5zm6-1.6h-.5l-2.7-1.5v-.5l2.5-1.8h.5l2.7 1.5v.4l-2.5 1.9zm5.6-1.5h-.6L240 152v-.3l2.6-1.8h.6l2.7 1.5v.4l-2.6 1.7zm-.4-7.2l.2-.1h.4l2.8 1.6v.4l-1.4 1h-.5l-2.8-1.6v-.3l1.3-1zm-4-2.2h.5l2.8 1.6v.4l-1.4 1h-.6l-2.8-1.6v-.3l1.5-1.1zm-3.9-2.2h.6l2.8 1.6v.2l-1.4 1h-.7l-2.8-1.6v-.3l1.5-.9zm-3.9-2.2l.2-.1h.5l2.8 1.6v.4l-1.4 1h-.4L230 141v-.3l1.1-1zm-4-2.2h.5l2.8 1.6v.4l-1.4 1h-.6l-2.8-1.6v-.3l.1-.1 1.4-1zm-3.9-2.2h.6l2.8 1.6v.2l-1.4 1h-.6l-2.8-1.6v-.2l1.4-1zm-3.9-2.2l.2-.1h.3l2.8 1.6v.4l-1.4 1h-.6l-2.8-1.6v-.3l1.5-1zm-4-2.2l.2-.1h.4l2.8 1.6v.4l-1.4 1h-.5l-2.8-1.6v-.3l1.3-1zm-3.9-2.2h.6l2.8 1.6.1.1v.2l-.8.6-.1.1-.1.1h-.1l-.1.1-.1.1h-.8L210 130v-.2l1.4-1.1zm-3.9-2.2h.5l2.8 1.6v.4l-1.4 1h-.5l-2.8-1.6-.1-.1v-.3l1.5-1zm-13.2-.6l.1-.1 2.5-1.8h.5l2.7 1.5.1.1v.4l-2.6 1.8h-.7l-2.7-1.5-.1-.1v-.2l.2-.1zm-3.6 2.6l.1-.1 2.5-1.8h.5l4.6 2.6v.2l-2.6 1.8h-.5l-4.6-2.6v-.2.1zm-3.7 2.6l.1-.1 2.6-1.8h.7l5.5 3.1v.3l-.1.1-2.5 1.8h-.5l-5.6-3.1v-.2l-.2-.1zm-3.7 2.6l.1-.1 2.6-1.8h.5l7.4 4.2v.4l-.1.1-2.6 1.8h-.7l-7.4-4.2v-.2l.2-.2zm-.7 4.9l-.1.1h-.4l-2.7-1.5v-.3l3-2.1h.5l2.7 1.5v.3l-3 2zm3.8 2.2h-.5l-2.7-1.5v-.3l.1-.1 3-2.1h.4l2.7 1.5v.2l-3 2.3zm3.8 2.1h-.6l-2.7-1.5v-.3l.1-.1 3-2.1h.6l2.7 1.5v.3l-3.1 2.2zm4.7 2.7h-.7l-3.6-2v-.2l3-2.1h.5l3.6 2v.3l-2.8 2zm19 10.7l-.2.1h-.3l-17.9-10v-.3l3-2.1h.5l17.9 10v.5l-3 1.8zm4.8 2.6l-.3.1h-.2l-3.6-2v-.3l3-2.1h.4l3.6 2v.4l-2.9 1.9zm3.8 2.1h-.5l-2.7-1.5v-.5l.1-.1 3-2.1h.5l2.7 1.5v.2l-3.1 2.5zm3.8 2.2l-.2.1h-.4l-2.7-1.5v-.3l.1-.1 1.2-.8h.7l2.7 1.5v.4l-.1.1-1.3.6zm3.8 2.1l-.2.1h-.4l-2.7-1.5-.1-.1v-.2l3-2.1h.6l2.7 1.5v.4l-1.5 1.1-1.4.8zm5.1 1.1l-.1.1-1.2.8h-.5l-2.7-1.5v-.3l1.2-.8h.4l2.7 1.5v.1l.2.1zm5.6-4v.1l-2.6 1.8h-.5l-7.4-4.2-.1-.1v-.3l2.5-1.8h.6l7.4 4.2.1.3zm3.6-2.5v.1l-2.5 1.8h-.4l-5.6-3.1v-.3l2.6-1.8h.6l5.5 3.1-.2.2zm3.7-2.7l-.1.2-2.5 1.8h-.6l-2.7-1.5v-.3l2.6-1.8h.6l2.7 1.5v.1zm3.6-2.6l-.1.1-2.5 1.8h-.6l-4.6-2.6v-.3l.1-.1 2.6-1.8h.6l4.6 2.6v.1l-.1.2zm2.6-1.8l-.1.1-1.4 1h-.5l-2.8-1.6v-.2l1.4-1h.5l2.8 1.6v.1h.1z" fill="#DAD8D5"/><path d="M215.4 147.5l-2.6-1.5h-.1v-.1h-.1v-.3l.1.1 2.7 1.5v.3zm-3.8-2.1l-2.6-1.5-.1-.1h-.1v-.4.1h.1v.1l2.7 1.5v.3zm31.1 8.1L240 152v-.1h-.1v-.3l.1.1 2.7 1.5v.3zm-2.4-6.1l-2.8-1.6-.1-.1v-.3.1h.1l2.8 1.6v.3zm-9-.3l-2.7-1.5v-.1h-.1v-.3l.1.1 2.7 1.5v.3z" fill="#BFBDB8"/><path d="M208 129.8v.2h-.1l-2.6 1.8v.1h-.3v.1l-.1-.1h-.2l-2.7-1.5-.1-.1v-.3h.1l2.6-1.8v-.1h.6l2.7 1.5.1.1v.1zm-3.8-2.2v.2l-.1.1-2.6 1.8-.1.1h-.5l-2.7-1.6h-.1v-.3h.1v-.1l2.6-1.8h.1l.1-.1h.3l.1.1 2.7 1.5.1.1z" fill="#F2F0E9"/><path d="M200.9 130.1l-2.6-1.5-.1-.1-.1-.1v-.3.1h.1l2.7 1.6v.3zm7.6 4.2l-2.7-1.5v-.1h-.1v-.3.1h.1l2.7 1.5v.3zm9 19l-2.7-1.5v-.1h-.1v-.3h.1v.1l2.7 1.5v.3zm-3.8-2.1l-2.7-1.6h-.1v-.4.1h.1l2.7 1.6v.3z" fill="#BFBDB8"/><path d="M221.8 156.5v.2h-.1l-3 2.2h-.1l-.2.1h-.2l-.1-.1-.1-.3h.1l.1.1h.3v-.1h.2l3-2.2.1-.1v.2zm-10-24.3v.2h-.1v.1l-2.5 1.8h-.2v.1h-.4v-.1h-.1v-.3l.1.1h.3l.1-.1h.1l2.6-1.9h.1v-.1.2z" fill="#737373"/><path d="M216.7 134.2l-2.8-1.6v-.1h-.1v-.3l.1.1 2.8 1.6v.3zm-7.8-4.4l-2.8-1.6h-.1v-.1h-.1v-.3h.1v.1l2.8 1.6.1.3zm-26.9 8.9l-2.7-1.5-.1-.1v-.3.1h.1l2.7 1.5v.3zm3.8 2.1l-2.7-1.5h-.1v-.4.1h.1l2.7 1.5v.3z" fill="#BFBDB8"/><path d="M185.8 136.3v.1h-.1v.1h-.1l-3 2.1v.1h-.6v-.3h.6v-.1l3-2.1.1-.1v-.1l.1.3zm3.8 2.1v.1h-.1v.1h-.1l-3 2.2h-.1l-.1.1h-.3l-.1-.1v-.3l.1.1h.3v-.1h.2l3-2.2h.1v-.1l.1.2z" fill="#737373"/><path d="M190.9 138.4l-7.4-4.2-.1-.1v-.1l-.1-.2h.1v.1h.1l7.4 4.2v.3z" fill="#BFBDB8"/><path d="M198.1 143.2v.1l-.1.1-3.1 2.1v.1h-.1l-.1.1h-.2l-.1-.1h-.1v-.3h.1v.1h.3v-.1h.2l3-2.2h.1v-.2l.1.3zm-4.7-2.6h-.1v.1l-.1.1-3 2.1-.1.1h-.5v-.3h.5v-.1h.1l3-2.1.1-.1v-.1.2l.1.1z" fill="#737373"/><path d="M198.5 142.6l-2.7-1.5-.1-.1v-.3.1h.1l2.7 1.5v.3z" fill="#BFBDB8"/><path d="M201.8 140.5v.2h-.1v.1l-2.5 1.8h-.1l-.1.1h-.4l-.1-.1v-.3l.1.1h.3l.1-.1h.1l2.6-1.8v-.1h.1v-.1.2zm-3.8-2.1v.2h-.1l-2.5 1.8v.1h-.3l-.1.1h-.1v-.1h-.2v-.3h.1l.1.1h.1l.1-.1h.2l2.6-1.9.1-.1v.2zm5.6-1.5v.1h-.1v.1h-.1l-2.5 1.8-.1.1h-.5l-.1-.3h.6v-.1l2.6-1.8h.1v-.2l.1.3z" fill="#737373"/><path d="M200.3 139l-2.7-1.5h-.1v-.1h-.1v-.3h.1v.1l2.7 1.5.1.3zm3.8 2.1l-2.7-1.5h-.1v-.1h-.1v-.3l.1.1 2.7 1.5.1.3zm-1.8 3.7l-2.7-1.6h-.1v-.4.1h.1v.1l2.7 1.5v.3z" fill="#BFBDB8"/><path d="M209.4 144.8v.2h-.1l-2.6 1.8v.1h-.2l-.1.1h-.1v-.1h-.2v-.3h.6v-.1l2.6-1.8.1-.1v.2zm-3.8-2.1v.1l-.1.1-2.5 1.8h-.1v.1h-.6v-.3h.5l.1-.1 2.6-1.8v-.1h.1v-.1.3z" fill="#737373"/><path d="M207.8 143.2l-2.6-1.5h-.1v-.1h-.1v-.3.1h.1l2.7 1.5v.3zm2.1 5.8l-2.7-1.5-.1-.1v-.3.1h.1l2.7 1.5v.3zm19.6 16.3l-2.7-1.5h-.1v-.4.1h.1l2.7 1.5v.3zm-3.8-2.1l-2.7-1.5-.1-.1v-.3.1h.1l2.7 1.5v.3zm26.4-9.2l-2.8-1.5v-.1h-.1v-.4.1h.1l2.8 1.6v.3zm-3.9-2.2l-2.8-1.6h-.1v-.1l-.1-.3.1.1h.1l2.8 1.6v.3z" fill="#BFBDB8"/><path d="M208 130.1v.2h-.1l-2.5 1.8-.1.1h-.6v-.3h.1l.1.1h.1l.1-.1h.2v-.1l2.6-1.8h.1v-.1.2zm-3.8-2.1v.1l-.1.1-2.5 1.8h-.1v.1h-.6v-.3h.5l.1-.1 2.6-1.8.1-.1v-.1.3z" fill="#737373"/><path d="M206.8 138l-2.7-1.5v-.1h-.1v-.4.1l.1.1 2.7 1.5v.3z" fill="#BFBDB8"/><path d="M211.2 141.2l-.1.1v.1h-.1l-2.5 1.8h-.1l-.1.1h-.4l-.1-.1v-.3l.1.1h.4v-.1h.1l2.6-1.8.1-.1v-.1l.1.2v.1zm-3.8-2.2v.1h-.1v.1l-.1.1-2.5 1.8h-.2v.1h-.4v-.1l-.1-.3h.1v.1h.3l.1-.1h.1l2.6-1.9h.1v-.1l.1.2z" fill="#737373"/><path d="M210.6 140.1l-2.7-1.5-.1-.1v-.3.1h.1l2.7 1.5v.3z" fill="#BFBDB8"/><path d="M211 128.5v.2h-.1l-1.4 1-.1.1h-.5l-.1-.3h.6v-.1h.1l1.4-1 .1-.1v-.1.3z" fill="#737373"/><path d="M212.8 132l-2.8-1.6-.1-.1v-.1l-.1-.2h.1v.1h.1l2.8 1.6v.3z" fill="#BFBDB8"/><path d="M214.9 130.4v.2h-.1l-1.4 1-.1.1h-.5l-2.8-1.6h-.1v-.1h-.1v-.2h.1v-.1h.1l1.3-1h.1v-.1h.6l2.8 1.6v.1h.1v.1z" fill="#F2F0E9"/><path d="M215 130.7v.1h-.1v.1h-.1l-.8.6-.1.1-.1.1h-.1v.1h-.1l-.2.1-.1.1h-.5v-.3h.5l.1-.1 1.4-1h.1v-.1l.1.2zm-8.7 3v.2h-.1v.1l-2.6 1.8h-.1v.1h-.4l-.1-.1v-.3.1h.5v-.1h.1l2.6-1.8v-.1l.1-.1v.2zm3.8 2.2v.1l-.1.1-2.6 1.8-.1.1h-.5v-.3h.5l.1-.1 2.6-1.8v-.1h.1v-.1.3z" fill="#737373"/><path d="M212.3 136.4l-2.7-1.5v-.1h-.1v-.3.1h.1l2.7 1.5v.3zm3.8 2.2l-2.7-1.5v-.1h-.1v-.4.1h.1v.1l2.7 1.5v.3z" fill="#BFBDB8"/><path d="M215.6 134.3v.2l-.1.1-2.5 1.8h-.1l-.1.1h-.4l-.1-.1v-.3.1h.5v-.1h.1l2.6-1.8v-.1h.1v-.1.2zm-1.7 3.7v.2h-.1l-2.6 1.8v.1h-.2v.1h-.3v-.1h-.1v-.3h.2v.1h.1v-.1h.3v-.1l2.5-1.8h.1v-.1h.1v.2zm3.8 2.1v.2h-.1v.1l-2.6 1.8h-.1v.1h-.4l-.1-.1v-.3.1h.4l.1-.1h.1l2.5-1.8.1-.1.1-.1v.2zm-2.7 3.2l-.1.1v.1h-.1l-2.5 1.8-.1.1h-.6v-.3h.5l.1-.1 2.6-1.8.1-.1v-.1l.1.3zm-1.8 3.6v.2l-.1.1-2.6 1.8h-.1l-.1.1h-.3v-.1h-.1v-.3l.1.1h.3l.1-.1h.1l2.6-1.8v-.1h.1v-.1.2zm5.6-1.5l-.1.1v.1h-.1l-2.5 1.9h-.2l-.1.1h-.2l-.1-.1h-.1v-.3h.1l.1.1h.1l.1-.1h.2v-.1l2.6-1.8h.1v-.1.2h.1zM217 149v.2l-.1.1-2.6 1.8-.1.1h-.5v-.3h.5l.1-.1 2.6-1.8v-.1h.1v-.1.2z" fill="#737373"/><path d="M218.1 158.9l-3.6-2h-.1v-.1h-.1v-.3l.1.1 3.6 2 .1.3z" fill="#BFBDB8"/><path d="M217.1 153.9v.1l-.1.1-3 2.1-.1.1h-.5l-.1-.3h.6l.1-.1 3-2.1v-.1h.1v-.1.3zm8.2-9.5v.1l-.1.1-2.6 1.8v.1h-.3v.1l-.1-.1h-.2v-.3h.1l.1.1h.1v-.1h.2l.1-.1 2.5-1.8h.1v-.1h.1v-.1.3z" fill="#737373"/><path d="M219.2 149.6l-2.6-1.5h-.1v-.1h-.1v-.3.1h.1l2.7 1.5v.3z" fill="#BFBDB8"/><path d="M220.8 151.2v.2h-.1l-2.6 1.8v.1h-.6v-.3h.6v-.1l2.6-1.8v-.1h.1v-.1.3z" fill="#737373"/><path d="M221.3 155.4l-2.7-1.5h-.1v-.4.1h.1l2.7 1.5v.3zm1.7-3.6l-2.7-1.5v-.1l-.1-.1v-.3.1h.1v.1l2.7 1.5v.3z" fill="#BFBDB8"/><path d="M224.6 153.3v.2h-.1v.1l-2.6 1.8h-.1l-.1.1h-.3v-.1h-.1v-.3l.1.1h.3v-.1h.2l2.5-1.9h.1l.1-.1v.2z" fill="#737373"/><path d="M221.9 161.1l-2.7-1.5v-.1h-.1v-.4.1l.1.1 2.7 1.5v.3z" fill="#BFBDB8"/><path d="M225.7 158.7h-.1v.1l-.1.1-3 2.1-.1.1h-.5v-.3h.5v-.1h.1l3-2.1.1-.1v-.1.2l.1.1z" fill="#737373"/><path d="M225.1 157.5l-2.7-1.5h-.1v-.4.1h.1l2.7 1.5v.3z" fill="#BFBDB8"/><path d="M228.4 155.4v.2h-.1v.1l-2.6 1.8h-.1v.1h-.5v-.4.1h.4l.1-.1h.1l2.5-1.8h.1v-.1l.1-.1v.2zm-.7 6.7v.1h-.1v.1h-.1l-1.1.9h-.2v.1h-.3l-.1-.1h-.1v-.3l.1.1h.3l.1-.1h.1l1.2-.9h.1v-.1l.1.2z" fill="#737373"/><path d="M233.2 162.6v.2h-.1v.1l-1.3.9-.4.3-1.3.9h-.1v.1h-.5v-.1l-2.7-1.5h-.1v-.3l.1-.1 3-2.1.1-.1h.5l2.7 1.6h.1v.1z" fill="#F2F0E9"/><path d="M235.2 166.3v.2h-.1v.1l-1.2.8-.1.1h-.5v-.3h.5l.1-.1 1.2-.8v-.1h.1v-.1.2zm-1.9-3.4v.1l-.1.1-.1.1-1.5 1-1.5 1.1h-.1v.1h-.4l-.1-.1v-.3.1h.5v-.1h.1l1.3-.9.4-.3 1.3-.9v-.1h.1v-.1l.1.2z" fill="#737373"/><path d="M237.5 164.5l-7.5-4.2-.1-.1v-.3l.1.1 7.4 4.2.1.3z" fill="#BFBDB8"/><path d="M240.8 162.4l-.1.1v.1h-.1l-2.5 1.8-.1.1h-.5l-.1-.3h.6v-.1l2.6-1.8.1-.1v-.1l.1.3zm-8.6-4.8v.1h-.1v.1l-2.6 1.8v.1h-.6v-.3h.5v-.1h.1l2.5-1.8h.1v-.1h.1v-.1.3z" fill="#737373"/><path d="M230.6 156l-2.7-1.5-.1-.1v-.3.1h.1l2.7 1.5v.3z" fill="#BFBDB8"/><path d="M233.9 153.9v.2l-.1.1-2.5 1.8h-.1l-.1.1h-.4l-.1-.1v-.3l.1.1h.3l.1-.1h.1l2.6-1.8v-.1h.1v-.1.2z" fill="#737373"/><path d="M234.4 158.2l-2.7-1.6h-.1v-.4.1h.1l2.7 1.6v.3z" fill="#BFBDB8"/><path d="M237.7 156.1v.1l-.1.1-2.5 1.8h-.1v.1h-.6v-.3h.5l.1-.1 2.6-1.8v-.1h.1v.2z" fill="#737373"/><path d="M241.1 161.9l-5.6-3.1v-.1h-.1v-.3h.1v.1l5.5 3.1.1.3z" fill="#BFBDB8"/><path d="M244.4 159.8v.1l-.1.1-2.6 1.8v.1h-.2l-.1.1h-.1l-.1-.1h-.1l-.1-.3h.6l.1-.1 2.5-1.8h.1v-.1h.1v.2zm3.7-2.6v.1h-.1v.1l-2.6 1.8v.1h-.6l-.1-.3h.6v-.1h.1l2.5-1.8h.1v-.2l.1.3z" fill="#737373"/><path d="M244.8 159.3l-2.7-1.5v-.1h-.1v-.1l-.1-.3.1.1.1.1 2.6 1.5.1.3zm-3.8-2.2l-2.7-1.5h-.1v-.2l-.1-.2h.1v.1h.1l2.6 1.5.1.3z" fill="#BFBDB8"/><path d="M244.3 155v.2h-.1v.1l-2.6 1.8h-.1v.1h-.5v-.1l-.1-.3.1.1h.4l.1-.1h.1l2.5-1.8.1-.1v-.1h.1v.2zm1.7-3.6v.2h-.1l-2.6 1.8v.1h-.3v.1l-.1-.1h-.2v-.3h.6v-.1l2.6-1.8v-.1h.1v.2z" fill="#737373"/><path d="M248.4 156.7l-4.6-2.6-.1-.1v-.3.1h.1l4.6 2.6v.3z" fill="#BFBDB8"/><path d="M251.7 154.6v.2h-.1l-2.6 1.8v.1h-.6v-.3h.6v-.1l2.6-1.8v-.1h.1v-.1.3zm2.6-1.9v.2h-.1v.1l-1.4 1h-.1l-.1.1h-.4l-.1-.1v-.3.1h.5v-.1h.1l1.4-1h.1v-.1l.1-.1v.2zm-3.9-2.1h-.1v.1l-.1.1-1.4 1h-.1l-.1.1h-.3v-.1h-.1v-.3l.1.1h.3l.1-.1h.1l1.4-1 .1-.1v-.1.2l.1.1zm-4-2.3v.2l-.1.1-1.4 1h-.1l-.1.1h-.3v-.1h-.1l-.1-.3h.1v.1h.4v-.1h.2l1.4-1v-.1h.1v-.1.2z" fill="#737373"/><path d="M244.3 149.6l-2.8-1.6h-.1l-.1-.1v-.3.1h.1l2.8 1.6.1.3z" fill="#BFBDB8"/><path d="M242.2 149.3v.1l-.1.1-2.6 1.8-.1.1h-.5v-.3h.5l.1-.1 2.6-1.8v-.1h.1v-.1.3zm-3.8-2.2v.2h-.1v.1l-2.6 1.8-.1.1h-.4l-.1-.1v-.3l.1.1h.3l.1-.1h.1l2.6-1.8v-.1h.1v-.1.2zm2.1 5.8v.1l-.1.1-2.6 1.9h-.2v.1h-.3v-.1h-.1l-.1-.3h.1l.1.1h.2l.1-.1h.2l2.5-1.8.1-.1v-.1h.1v.2z" fill="#737373"/><path d="M237.2 155l-2.7-1.5-.1-.1v-.1l-.1-.2h.1v.1h.1l2.6 1.5.1.3z" fill="#BFBDB8"/><path d="M230.1 151.8v.2h-.1l-2.5 1.8-.1.1h-.6v-.3h.1l.1.1h.1l.1-.1h.2l2.6-1.9h.1v-.1.2z" fill="#737373"/><path d="M226.8 153.9l-2.7-1.5v-.1h-.1v-.3l.1.1 2.7 1.5v.3z" fill="#BFBDB8"/><path d="M226.4 149.7h-.1v.2h-.1l-2.5 1.8-.1.1h-.6v-.3h.5l.1-.1 2.6-1.8.1-.1v-.1.2l.1.1zm-3.8-2.1h-.1v.1l-.1.1-2.5 1.8h-.1l-.1.1h-.4v-.1h-.1v-.3.1h.5v-.1h.1l2.6-1.8v-.1h.1v-.1.2l.1.1z" fill="#737373"/><path d="M233.4 152.9l-2.7-1.5v-.1h-.1v-.1l-.1-.2h.1l.1.1 2.7 1.5v.3z" fill="#BFBDB8"/><path d="M236.7 150.8v.1l-.1.1-2.6 1.8v.1h-.6v-.3h.5l.1-.1 2.5-1.8h.1v-.1l.1-.1v.3zm-3.8-2.2v.2h-.1v.1l-2.6 1.8h-.1v.1h-.5v-.4.1h.5v-.1h.1l2.5-1.8h.1v-.2h.1v.2z" fill="#737373"/><path d="M235.1 149.2l-2.7-1.5-.1-.1v-.3l.1.1 2.7 1.5v.3zm-5.5 1.5l-2.7-1.5h-.1v-.1l-.1-.3.1.1h.1l2.7 1.5v.3z" fill="#BFBDB8"/><path d="M229.1 146.5v.2h-.1v.1l-2.6 1.8h-.1l-.1.1h-.3l-.1-.1v-.3l.1.1h.3v-.1h.2l2.5-1.8.1-.1.1-.1v.2z" fill="#737373"/><path d="M227.5 145l-2.7-1.5v-.1h-.1v-.4.1h.1v.1l2.7 1.5v.3z" fill="#BFBDB8"/><path d="M234.6 145v.2h-.1l-2.6 1.8v.1h-.2l-.1.1h-.1v-.1h-.2v-.3h.1l.1.1h.1l.1-.1h.2l2.6-1.9.1-.1v.2zm-3.8-2.1v.1l-.1.1-2.5 1.8h-.1v.1h-.6v-.3h.5l.1-.1 2.6-1.8v-.1h.1v-.1.3zm11.7 3.2v.2h-.1v.1l-1.4 1h-.2v.1h-.4v-.1h-.1v-.3h.1l.1.1h.2v-.1h.2l1.4-1 .1-.1v-.1h.1v.2zm-3.9-2.1h-.1v.1l-.1.1-1.4 1h-.2v.1h-.2l-.1-.1h-.1v-.3h.1v.1h.2l.1-.1h.2l1.4-1v-.1h.1v-.1.2l.1.1z" fill="#737373"/><path d="M236.4 145.2l-2.8-1.6h-.1v-.2l-.1-.2h.1v.1h.1l2.8 1.6v.3z" fill="#BFBDB8"/><path d="M234.6 141.7v.2h-.1v.1l-1.4.9v.1h-.3v.1h-.1l-.1-.1h-.1l-.1-.3h.2v.1h.2l.1-.1h.2l1.4-1v-.1h.1v-.1.2zm-3.9-2.2v.2h-.1v.1l-1.4.9-.1.1h-.2v.1h-.2v-.1h-.2v-.3h.6v-.1l1.4-.9.1-.1v-.1h.1v.2z" fill="#737373"/><path d="M232.5 143l-2.8-1.6h-.1v-.1h-.1v-.3l.1.1 2.8 1.6.1.3zm-4-2.2l-2.8-1.6-.1-.1v-.3.1h.1l2.8 1.6v.3zm-8.6-.1l-2.7-1.5v-.1h-.1v-.3l.1.1 2.7 1.5v.3z" fill="#BFBDB8"/><path d="M223.2 138.6v.2h-.1l-2.5 1.9h-.2l-.1.1h-.2l-.1-.1h-.1l-2.7-1.5 2.7 1.5v-.3h.1v.1h.3v-.1h.2l2.6-1.9.1-.1v.2zm-3.8-2.1v.1l-.1.1-2.5 1.8-.1.1h-.6v-.3h.6v-.1l2.6-1.8.1-.1v-.1.3zm-.5-3.6v.1l-.1.1-1.4 1h-.1v.1h-.6v-.3h.6v-.1l1.4-1h.1v-.1h.1v.2z" fill="#737373"/><path d="M220.7 136.4l-2.8-1.6h-.1v-.1h-.1v-.3h.1v.1l2.8 1.6.1.3z" fill="#BFBDB8"/><path d="M226.8 137.3l-.1.1v.1h-.1l-1.4 1v.1h-.6v-.3h.6v-.1l1.4-1h.1v-.1.2h.1zm-4-2.2v.2h-.1l-1.4 1v.1h-.6l-.1-.3h.6l.1-.1 1.4-1 .1-.1v.2zm4.2 5.6v.2h-.1v.1l-2.5 1.8h-.1l-.1.1h-.4l-.1-.1v-.3.1h.5v-.1h.1l2.6-1.8v-.1h.1v-.1.2z" fill="#737373"/><path d="M214.4 142.2l-2.7-1.5h-.1v-.4.1h.1l2.7 1.5v.3zm3.8 2.2l-2.7-1.5v-.1h-.1v-.4.1h.1l2.7 1.6v.3z" fill="#BFBDB8"/><path d="M221.5 142.3v.1h-.1v.1l-2.6 1.8-.1.1h-.5v-.3h.5v-.1h.1l2.5-1.8.1-.1h.1v-.1.3zm-19-10.7v.2h-.1l-2.6 1.9h-.2v.1h-.2l-.1-.1h-.1v-.3h.1l.1.1h.1l.1-.1h.2l2.6-1.9.1-.1v.2zm-2.7 3.2v.1h-.1v.1h-.1l-2.5 1.8h-.1v.1h-.5l-.1-.3h.5l.1-.1h.1l2.5-1.8.1-.1v-.1l.1.2v.1z" fill="#737373"/><path d="M199.2 133.7l-2.7-1.5v-.1h-.1v-.3.1h.1l2.7 1.5v.3zm3.8 2.1l-2.7-1.5-.1-.1v-.3.1h.1l2.7 1.5v.3zm-6.5 1.1l-2.7-1.6h-.1v-.1h-.1v-.3.1h.1l2.7 1.6.1.3zm-1.8 3.6L192 139l-.1-.1v-.3l.1.1 2.7 1.5v.3z" fill="#BFBDB8"/><path d="M194.2 136.3v.1l-.1.1-2.5 1.8-.1.1h-.6v-.3h.5l.1-.1 2.6-1.8.1-.1v-.1.3z" fill="#737373"/><path d="M192.7 134.7l-5.6-3.1-.1-.1v-.3.1h.1l5.6 3.1v.3z" fill="#BFBDB8"/><path d="M196 132.7v.1l-.1.1-2.6 1.8h-.1v.1h-.5v-.4.1h.5v-.1h.1l2.5-1.8.1-.1.1-.1v.3z" fill="#737373"/><path d="M195.4 131.6l-4.6-2.6v-.1h-.1v-.3l.1.1 4.5 2.6.1.3z" fill="#BFBDB8"/><path d="M198.7 129.5v.1h-.1v.1l-2.6 1.8-.1.1h-.5l-.1-.3h.6v-.1h.1l2.5-1.8.1-.1.1-.1v.3z" fill="#737373"/><path d="M197.1 127.9l-2.6-1.5h-.1v-.1h-.1v-.3l.1.1 2.7 1.5v.3z" fill="#BFBDB8"/><path d="M200.5 125.8v.1h-.1v.1l-.1.1-2.5 1.8h-.1l-.1.1h-.4v-.1h-.1v-.3l.1.1h.4v-.1h.1l2.6-1.8v-.1h.1v-.1l.1.2z" fill="#737373"/><path d="M233.2 169l-.2-.1h-.2l-.2-.1-.2-.1-53.7-30.1-.2-.1-.1-.1-.1-.2-.1-.1v-.1l-.1-.8v.2l.1.1.1.1.1.1.2.1 53.7 30.2.2.1h.2l.2.1h.2l.1.8zM205 127.6l-2.9-1.6v-.1h-.1v-.3l.1.1 2.8 1.6.1.3z" fill="#BFBDB8"/><path d="M207.1 126v.1h-.1v.1h-.1l-1.4 1v.1h-.6l-2.8-1.6-.1-.1v-.3h.1l1.4-1 .1-.1h.5l2.8 1.6.1.1.1.1z" fill="#F2F0E9"/><path d="M207.1 126.3v.1l-.1.1-.8.6-.2.1-.1.1-.1.1h-.1l-.1.1h-.1v.1h-.5l-.1-.3h.6v-.1l1.4-1h.1v-.1h.1v.2z" fill="#737373"/><path d="M201 125.3l-2.8-1.6h-.2v-.4.1h.1l2.8 1.6.1.3z" fill="#BFBDB8"/><path d="M203.1 123.8l-.1.1-.1.1-1.3 1h-.2v.1h-.4v-.1h-.1l-2.8-1.6h-.1v-.3h.1v-.1l1.4-1h.2l.1-.1h.1l.1.1h.1l2.8 1.6h.1v.1h.1v.1z" fill="#F2F0E9"/><path d="M203.1 124.1v.1h-.1v.1l-.8.6-.2.1h-.1v.1h-.1l-.1.1-.1.1h-.2v.1h-.3v-.1h-.1l-.1-.3h.1v.1h.4v-.1h.2l1.3-1 .1-.1.1-.1v.3z" fill="#737373"/><path d="M204.7 132.2l-2.8-1.6v-.4.1l.1.1 2.7 1.5v.3z" fill="#BFBDB8"/><path d="M406.4 319.4l-.3 2.2c-.7 2.5-2.8 4.9-6.1 6.8-2.7 1.6-6 2.7-9.5 3.2 0 0 2.5 28-7.4 32.1-3.9-.2-7.7-1.1-10.6-2.8-1.7-1-2.9-2.1-3.7-3.2-.8-1.2-1.2-2.4-1.2-3.7l-4.7-32.4-.3-2.1h43.8v-.1z" fill="#ACC0A1"/><path d="M406.1 321.6c-.7 2.5-2.8 4.9-6.1 6.8-2.7 1.6-6 2.7-9.5 3.2-7.4 1.2-15.7.1-21.5-3.2-3.3-1.9-5.4-4.3-6.1-6.8-.2-.7-.3-1.4-.3-2.1 0-3.2 2.1-6.5 6.4-9 8.6-5 22.5-5 31.1 0 .3.2.6.4 1 .6 4.4 2.9 6.1 6.8 5 10.5z" fill="#B5CCAA"/><path d="M405.2 319.4c0 .8-.2 1.7-.5 2.5-.5 1.1-1.3 2.2-2.3 3.2-.4.4-.8.7-1.3 1.1-.3.2-.5.4-.8.6-.3.2-.5.4-.8.5-.9.5-1.9 1-2.9 1.4-.6.2-1.2.5-1.9.7-1.1.4-2.3.7-3.5.9l-2.1.3c-.7.1-1.4.2-2.1.2-.8.1-1.6.1-2.4.1h-1.1c-.5 0-.9 0-1.4-.1-.5 0-1-.1-1.5-.1-1.3-.1-2.5-.4-3.7-.6-.1 0-.2 0-.3-.1-1.2-.3-2.4-.6-3.4-1.1-.5-.2-1.1-.4-1.6-.7l-1.2-.6-.6-.3c-.5-.3-1-.6-1.4-.9-1.9-1.4-3.2-2.9-3.9-4.5-.3-.8-.5-1.6-.5-2.5 0-2.9 2.1-5.7 5.8-7.9 2.9-1.7 6.6-2.8 10.5-3.3 1.4-.2 2.9-.3 4.4-.3 5.7 0 10.9 1.3 14.9 3.6 3.5 2.2 5.6 5 5.6 7.9z" fill="#9CB194"/><path d="M406.1 321.6l-4.7 32.3c0 2.5-1.7 5-5 6.9-3.7 2.1-8.6 3.1-13.4 2.8 9.9-4.1 7.4-32.1 7.4-32.1 3.5-.6 6.8-1.6 9.5-3.2 3.4-1.9 5.4-4.2 6.2-6.7z" fill="#A3B598"/><path d="M386.9 330.7c-.8.1-1.6.1-2.5.1-5.6 0-10.9-1.3-14.9-3.5-.5-.3-1-.6-1.4-.9-1.9-1.4-3.2-2.9-3.9-4.5-.3-.8-.5-1.6-.5-2.5 0-2.9 2.1-5.7 5.8-7.9 2.9-1.7 6.6-2.8 10.5-3.3.1 0 2.9 13.2 6.9 22.5z" fill="#899C82"/><path d="M382.9 323.1v.3l-.2 1.3-.4 3.1-.1.6v.8l-.2 1.4c-.5 0-1-.1-1.5-.1-1.3-.1-2.5-.4-3.7-.6-.1 0-.2 0-.3-.1-1.2-.3-2.4-.6-3.4-1.1-.5-.2-1.1-.4-1.6-.7v-.6h-1.2l-.6-.3c-.5-.3-1-.6-1.4-.9l.3-1 5-4.5 1.9.7 1.3.5 2.8 1.1h3.3v.1z" fill="#E2E2E2"/><path d="M376.6 326.1l-3.6 2.8c-.5-.2-1.1-.4-1.6-.7v-.6l5.2-1.5zm-3.5-1.8l2.2-2.7 1.3.5-3.5 2.2zm3.6 5.7c-.1 0-.2 0-.3-.1l.2-1 .1 1.1zm3.9-2.4l2.3-4.5-.7 5.8-1.6-1.3z" fill="#CBCBCB"/><path d="M379.4 325.1l2.9-.8-.5 1.1-2.4-.3z" fill="#CBCBCB"/><path d="M402.3 325.1c-.4.4-.8.7-1.3 1.1-.3.2-.5.4-.8.6-.3.2-.5.4-.8.5-.9.5-1.9 1-2.9 1.4-.6.2-1.2.5-1.9.7-1.1.4-2.3.7-3.5.9l-.2-.7-.1-.4-.9-3-.1-.5v-.1l-.3-.8 1.4-1.4 1-1 2.1-2.1 1.5-3.2 4.9 3.1 1.7 1.1.1 1.5.1 2.3z" fill="#DCDCDC"/><path d="M396.5 328.7c-.6.2-1.2.5-1.9.7l.9-5.3 1 4.6zm-4.1-2.2l-1.5-3.2.9-1 .6 4.2zm8.6-.3c-.3.2-.5.4-.8.6l-2.2-1.5 3 .9zm-2.5-5.2l-3-4 4.9 3.2-1.9.8zm.7 4.6l2.9-4.4.1 1.5-3 2.9z" fill="#C5C5C5"/><path d="M400.6 326.1l-.3-1.3-1.1.8 1.4.5zm-4.8-5l.5-3 .7.9-1.2 2.1z" fill="#C5C5C5"/><path d="M391.9 328.9l-1.1.6-1.9 1c-.7.1-1.4.2-2.1.2-.8.1-1.6.1-2.4.1h-1.1c-.5 0-.9 0-1.4-.1-.5 0-1-.1-1.5-.1l-.3-.1-1.6-.7.8-6 .9-.7 1.1-.8-2.2-2.9 2.2-.7 6.6 1.3.5 1.9.4 1.3.4 1.4.2.9v.1l.1.5 2.4 2.8z" fill="#FCFCFC"/><path d="M381.5 322.3l4.3 3.3-6.4-1.8 2.1-1.5zm3.6-.6l3.5.2.4 1.3-3.9-1.5zm-1.6 5.6l-3.3 3.2-1.6-.8 4.9-2.4zm8.4 1.6l-1.1.6-1.9 1c-.7.1-1.4.2-2.1.2l.1-1 2.5-.4 1.1-.2h.2l1.2-.2zm-7.8 1.9h-.7l-.7-2.7 1.4 2.7z" fill="#E5E5E5"/><path d="M381.6 329.2l1.1.3-.1-1.4-1 1.1zm6.6-2l2.4 1.9-1.2.2-1.2-2.1z" fill="#E5E5E5"/><path d="M269.6 188.5l28 16.2 41.6-24-28-16.2-41.6 24z" fill="#A4843F"/><path d="M271.7 192.5l33.1 12.6 32.3-28.4-33.1-12.6-32.3 28.4z" fill="#BF9A4A"/><path d="M265.2 196.2l33.1 12.5 32.3-28.4-33.1-12.5-32.3 28.4z" fill="#FFCD62"/><path d="M315.3 192.1c0-.1 0-.1 0 0v-.3s0-.1-.1-.1c0 0 0-.1-.1-.1v-.1h-.3l-15.6 9.1-.1.1v.1l-1.5 1.7-.8 1 1.3-.2 2.3-.4c.1 0 .1 0 .1-.1l15.6-9.1c.1 0 .1-.1.1-.1v-.1c-.9-1.3-.9-1.3-.9-1.4 0 .1 0 0 0 0zm-16.9 7.4h.1-.1zm-.1 0c-.1 0 0 0 0 0zm.5.1c-.1 0-.1-.1-.2-.1.1.1.1.1.2.1s.1.1.2.1.1.1.2.2c-.1-.1-.3-.2-.4-.3zm.8 1.9c0 .1 0 .1 0 0 0 .1 0 0 0 0zm.1-.1v-.2c0-.3-.1-.6-.3-.9 0 .1.1.1.1.2s.1.1.1.2 0 .1.1.2v.5z" fill="#BDB0AA"/><path d="M313.5 191.3c0-.1 0-.1 0 0v-.3s0-.1-.1-.1c0 0 0-.1-.1-.1v-.1h-.3l-15.6 9.1s.1 0 .1-.1h.4c.1 0 .1 0 .2.1.1 0 .1.1.2.1s.1.1.2.2.2.2.3.4c0 .1.1.1.1.2s.1.1.1.2 0 .1.1.2v.4c0 .1 0 .1-.1.2 0 0 0 .1-.1.1 0 .1-.1.1-.1.1l15.6-9.1c.1 0 .1-.1.1-.1v-.1c-1-1.2-1-1.2-1-1.3 0 .1 0 .1 0 0z" fill="#524A47"/><path d="M295.3 201.4l-1.3.2.8-1c.2.2.4.5.5.8z" fill="#554D49"/><path d="M297.6 201l-2.3.4c-.1-.3-.3-.5-.5-.8l1.5-1.7v-.1c.2-.2.4-.2.7 0 .5.3.9 1 .9 1.6.1.3-.1.6-.3.6z" fill="#D8BE9A"/><path d="M271.3 167.5c-.1.1-.2.2-.4.2l-.3.3-.3.3c-.1.1-.2.1-.2.2l-.1.1-.2.2c-.6.6-1.1 1.2-1.5 1.7l-.4.4c-.1 0-.1.1-.2.1-.1.1-.2.1-.3.2-.6.3-1.1.6-1.8.8-1.9.5-4.5-.4-5.1-1.2-.1-.1-.1-.1-.1-.2-.8-1.1-.3-2.2 0-2.7l.3-.6c.3-.4.6-.9 1-1.3l.3-.3c.9-.9 2-1.7 2.9-2.3-.3.9 0 2.1 1 2.7.2.1.4.2.6.4.3.2.6.3.9.5.2.1.4.2.6.2.2.1.4.1.7.2.2.1.5.1.7.2.7-.1 1.3 0 1.9-.1z" fill="#DAD8D5"/><path d="M278.1 167.8c0 .7-.8 1.2-1.4 1.5-.4.2-7.5 4-7.9 4.1-.6.1-1.8.2-2.8.2h-.1.6c.4 0 .7-.1 1.1-.2h.2c.2 0 .3-.1.5-.2.1 0 .2-.1.3-.1.1-.1.2-.1.4-.2.4-.2.7-.4.9-.7 1.4-1.1 2.5-1.8 3.4-2.3.1 0 .2-.1.2-.1.1-.1.3-.1.4-.2.2-.1.3-.1.4-.2.3-.1.5-.2.7-.3h.1c.1 0 .1 0 .2-.1h.1c.2-.1.3-.2.4-.3.1 0 .1-.1.2-.1l.2-.2c.1-.1.1-.2.1-.2.1-.1.1-.2.2-.4 0-.1 0-.1.1-.3v-.7c0-.1 0-.2-.1-.3 0-.1-.1-.1-.1-.2s-.1-.2-.2-.3c0-.1-.1-.1-.2-.2l-.2-.2c-.2-.1-.4-.2-.6-.4-.2-.1-.4-.2-.5-.3-.2-.1-.4-.2-.5-.3l-.5-.1v-.2c-.1 0-.2-.1-.4-.1l.1-.1c.1 0 .1-.1.3-.2.1 0 .2.1.3.2 0 0 .1 0 .1.1.7.4 1.3.8 1.9 1.3.2.2.5.3.8.5.5.3 1.3.8 1.3 1.8z" fill="#BDB0AA"/><path d="M276.6 166h-.5c-.3 0-.5 0-.7.1-.1 0-.3 0-.4.1-.1 0-.3 0-.4.1-.4.1-.9.2-1.2.3-.1 0-.2.1-.4.1-.2.1-.3.1-.5.2l-.6.3c-.1 0-.2.1-.3.2-.1.1-.2.1-.4.2-.6 0-1.2 0-1.7-.1-.3 0-.5-.1-.7-.2-.2-.1-.4-.1-.7-.2-.2-.1-.4-.2-.6-.2-.3-.2-.6-.3-.9-.5-.2-.1-.4-.2-.6-.4-1-.6-1.4-1.8-1-2.7.4-.3.7-.4.7-.4 2.4-1.4 5.3-.6 7.7.8 2.6 1.4 3.2 2.3 3.2 2.3z" fill="#F2F0E9"/><path d="M266.4 173.5h-1c-.5 0-.9 0-1-.1h1.5c.1.1.3.1.5.1z" fill="#E3E5E1"/><path d="M276.8 166.5v-.2c0-.1 0-.2-.1-.3h-.5c0 .1.1.1.1.2.1.1.1.2.1.3v.7c0 .3 0 .2-.1.3 0 .1-.1.2-.2.4 0 .1-.1.2-.1.2-.1.1-.1.2-.2.2s-.1.1-.2.1c-.1.1-.2.2-.4.3h-.1s.1 0 .1-.1c.1 0 .2-.1.2-.1.2-.1.3-.2.4-.3.1 0 .1-.1.2-.1.1-.1.2-.2.2-.3.1-.1.1-.2.2-.2.1-.1.1-.2.2-.4 0-.1 0-.1.1-.3.1 0 .1-.4.1-.4z" fill="#737373"/><path d="M276.5 167.2c0 .3 0 .2-.1.3 0 .1-.1.2-.2.4 0 .1-.1.2-.1.2-.1.1-.1.2-.2.2s-.1.1-.2.1c-.1.1-.2.2-.4.3h-.1s-.1.1-.2.1h-.1c-.1.1-.3.1-.4.2-.1.1-.3.1-.4.2-.2.1-.4.2-.7.3-.1 0-.2.1-.2.1-.9.5-2.1 1.2-3.4 2.3-.3.2-.6.5-.9.7-.1.1-.2.1-.4.2-.1.1-.2.1-.3.1-.2.1-.3.1-.5.2h-.2c-.3.1-.7.2-1.1.2h-2.1c-.6-.1-1.2-.2-1.8-.5-2.3-1-3.1-1.8-3-3.3.1-.6.6-1.6 1.3-2.5l-.3.6c-.6 1-.7 1.8 0 2.7 0 .1.1.1.1.2.6.8 3.2 1.7 5.1 1.2.7-.2 1.2-.5 1.8-.8.1 0 .2-.1.3-.2.1 0 .1-.1.2-.1.1-.1.3-.2.4-.4.5-.5.9-1.1 1.5-1.7l.2-.2.1-.1.2-.2.3-.3.3-.3c.1-.1.2-.2.4-.2.1-.1.2-.1.4-.2.1-.1.2-.1.3-.2l.6-.3c.2-.1.3-.1.5-.2.1 0 .2-.1.4-.1l1.2-.3c.1 0 .3 0 .4-.1.1 0 .3 0 .4-.1.2 0 .5-.1.7-.1 0 .1.1.1.1.2.1.1.1.2.1.3v1.1z" fill="#737373"/><path d="M265.8 173.5h-.5c-.8 0-1.2-.1-1-.1h.3c.2.1.6.1 1.2.1z" fill="#BAC2BF"/><path d="M267.6 173.2c-.4.1-.9.2-1.4.2h-1.5 1.9c.2 0 .6-.1 1-.2-.1.1 0 .1 0 0z" fill="#737373"/><path d="M270.7 163c-.1-.1-.3-.2-.5-.2-.8 0-2.1 1-2.1 2.1 0 .1.1.3.3.3.1 0 .1 0 .2-.1l2.1-1.2c.1 0 .3-.1.3-.3-.1-.2-.1-.4-.3-.6zm-1.9 1.4c.3-.6 1-1 1.4-1h.1l-1.5 1z" fill="#BFBDB8"/></g><defs><linearGradient id="paint0_linear" x1="183.534" y1="106.512" x2="202.235" y2="106.512" gradientUnits="userSpaceOnUse"><stop stop-color="#EBB030"/><stop offset="1" stop-color="#ED7F1D"/></linearGradient><clipPath id="clip0"><path fill="#fff" d="M0 0h469.5v434.7H0z"/></clipPath></defs></svg>