<svg width="62" height="74" fill="none" xmlns="http://www.w3.org/2000/svg"><path d="M2 2h37.814L60 15.878v55.579H2V2z" stroke="#335B96" stroke-width="4"/><path fill="#335B96" stroke="#335B96" stroke-width="4" d="M2 35.022h58v21.609H2z"/><path d="M16 51.328h2.016V46.64h1.552c2.4 0 4.4-.864 4.4-3.36 0-2.368-1.68-3.28-4.272-3.28H16v11.328zm2.016-6.384v-3.248h1.472c1.248 0 2.448.24 2.448 1.584s-1.2 1.664-2.512 1.664h-1.408zm8.55 6.384h4.016c2.96 0 6.256-1.696 6.256-5.664 0-4.256-3.296-5.664-6.256-5.664h-4.016v11.328zm2.016-1.76v-7.84h1.68c2.08 0 4.416.688 4.416 3.936 0 3.056-2.336 3.904-4.416 3.904h-1.68zm11.002 1.76H41.6V46.56h4.992v-1.696H41.6V41.76h5.296V40h-7.312v11.328z" fill="#fff"/></svg>