<svg width="71" height="71" fill="none" xmlns="http://www.w3.org/2000/svg"><path d="M34.21.56a1.763 1.763 0 0 1 2.58 0l2.944 3.157a1.763 1.763 0 0 0 2.118.354l3.811-2.03a1.763 1.763 0 0 1 2.439.837l1.76 3.943a1.763 1.763 0 0 0 1.889 1.022l4.263-.683a1.763 1.763 0 0 1 2.035 1.584l.385 4.3a1.763 1.763 0 0 0 1.454 1.58l4.254.739a1.763 1.763 0 0 1 1.41 2.159l-1.032 4.192c-.19.775.163 1.582.863 1.966l3.783 2.08a1.763 1.763 0 0 1 .633 2.5l-2.337 3.63a1.763 1.763 0 0 0 .177 2.14l2.903 3.196c.687.756.59 1.936-.213 2.57l-3.39 2.674a1.763 1.763 0 0 0-.526 2.081l1.708 3.965a1.763 1.763 0 0 1-1.036 2.362l-4.074 1.429a1.763 1.763 0 0 0-1.175 1.797l.328 4.305a1.763 1.763 0 0 1-1.746 1.897l-4.318.029a1.763 1.763 0 0 0-1.694 1.319l-1.088 4.178a1.763 1.763 0 0 1-2.267 1.227l-4.093-1.374a1.763 1.763 0 0 0-2.031.697L42.54 69.98a1.763 1.763 0 0 1-2.543.424l-3.424-2.63a1.763 1.763 0 0 0-2.148 0l-3.424 2.63a1.763 1.763 0 0 1-2.543-.424l-2.386-3.6a1.763 1.763 0 0 0-2.03-.696l-4.094 1.374a1.763 1.763 0 0 1-2.267-1.227l-1.088-4.178a1.763 1.763 0 0 0-1.694-1.319l-4.318-.029a1.763 1.763 0 0 1-1.746-1.897l.328-4.305a1.763 1.763 0 0 0-1.175-1.797l-4.074-1.43a1.763 1.763 0 0 1-1.035-2.36l1.708-3.966c.315-.733.1-1.587-.528-2.081L.671 39.795a1.763 1.763 0 0 1-.213-2.57l2.903-3.195c.537-.591.61-1.469.177-2.14l-2.337-3.63a1.763 1.763 0 0 1 .633-2.5l3.783-2.08a1.763 1.763 0 0 0 .863-1.966l-1.032-4.192a1.763 1.763 0 0 1 1.41-2.159l4.254-.739a1.763 1.763 0 0 0 1.454-1.58l.385-4.3a1.763 1.763 0 0 1 2.035-1.584l4.263.683a1.763 1.763 0 0 0 1.889-1.022l1.76-3.943a1.763 1.763 0 0 1 2.439-.837l3.81 2.03c.705.375 1.574.23 2.119-.354L34.21.56z" fill="#BFE0F1"/><path d="M64.346 35.615c0 15.932-12.915 28.847-28.846 28.847-15.93 0-28.846-12.915-28.846-28.847C6.654 19.685 19.57 6.77 35.5 6.77c15.931 0 28.846 12.914 28.846 28.845z" fill="#fff"/><path fill-rule="evenodd" clip-rule="evenodd" d="M35.5 60.421c13.7 0 24.806-11.106 24.806-24.805 0-13.7-11.106-24.806-24.806-24.806-13.7 0-24.805 11.106-24.805 24.806 0 13.7 11.106 24.805 24.805 24.805zm0 1.763c14.674 0 26.569-11.895 26.569-26.568 0-14.674-11.895-26.57-26.569-26.57-14.673 0-26.568 11.896-26.568 26.57 0 14.673 11.895 26.568 26.568 26.568z" fill="#BFE0F1"/><path d="M21.077 32.58h3.037v15.94h-3.037V32.58z" fill="#CE001F"/><path fill-rule="evenodd" clip-rule="evenodd" d="M36.735 18.604c-.207.261-.58 1.103-.827 1.87-.607 1.888-2.905 5.367-5.22 7.904-1.047 1.148-2.358 2.81-2.911 3.693-.589.939-1.401 1.705-1.956 1.844l-.948.238v5.273c0 5.212-.37 6.182.474 6.19.47.004-1.613.15 4.08 1.148 5.694.997 11.766.238 17.298 0 2.51-.69 3.482-1.71 2.884-3.023-.38-.834-.316-1.058.509-1.775 1.094-.951 1.207-2.04.316-3.026-.585-.646-.585-.742 0-1.388.893-.987.126-3.128-.825-3.637-.634-.339-.03-.499.165-1.72.207-1.298.118-1.543-.778-2.13-.923-.605-1.39-.623-5.277-.208-2.345.25-4.557.343-4.916.205-1.172-.45-1.147-1.849.082-4.65 1.446-3.295 1.513-5.076.238-6.35-1.029-1.03-1.815-1.18-2.388-.458z" fill="#335B96"/></svg>