<svg width="72" height="79" fill="none" xmlns="http://www.w3.org/2000/svg"><path fill-rule="evenodd" clip-rule="evenodd" d="M35 14.5C18.708 14.5 5.5 27.708 5.5 44S18.708 73.5 35 73.5 64.5 60.292 64.5 44 51.292 14.5 35 14.5zM.5 44C.5 24.946 15.946 9.5 35 9.5c19.054 0 34.5 15.446 34.5 34.5 0 19.054-15.446 34.5-34.5 34.5C15.946 78.5.5 63.054.5 44z" fill="#335B96"/><path d="M40.364 44a5.365 5.365 0 1 1-10.73 0 5.365 5.365 0 0 1 10.73 0z" fill="#335B96"/><path d="M17.686 30.502l3.814-3.814L35.632 40.82l-3.814 3.814-14.133-14.132zm7.953-24.411V.697h18.248V6.09H25.64zm32.321 5.111l3.964-3.963 9.604 9.604-3.963 3.962-9.604-9.603z" fill="#335B96"/><path d="M56.565 17.73l3.962-3.963L65 18.239l-3.963 3.963-4.472-4.473z" fill="#335B96"/></svg>