<svg width="106" height="106" fill="none" xmlns="http://www.w3.org/2000/svg"><path d="M89.035 90.42c-42.44-4.135-66.267-31.125-73.385-73.344-.484-2.869 1.676-5.477 4.58-5.64l18.457-1.039c1.603-.09 2.989 1.1 3.173 2.696.775 6.706 1.743 11.206 3.978 17.592a3.043 3.043 0 0 1-.62 3.066l-6.731 7.317a2.981 2.981 0 0 0-.371 3.544c7.046 11.801 12.463 18.124 24.48 24.615a2.95 2.95 0 0 0 3.483-.526l7.254-7.253c.884-.885 2.22-1.118 3.38-.651 5.442 2.188 10.132 2.835 16.415 3.563a3 3 0 0 1 2.646 3.22l-1.483 18.351c-.218 2.703-2.558 4.751-5.256 4.488z" fill="#335B96"/></svg>