<svg width="58" height="87" fill="none" xmlns="http://www.w3.org/2000/svg"><path fill-rule="evenodd" clip-rule="evenodd" d="M48.121 44.358c2.631-5.884 4.015-10.594 4.015-13.611 0-14.068-10.756-25.017-23.477-25.017-12.722 0-23.477 10.95-23.477 25.017 0 3.017 1.383 7.727 4.014 13.611 2.552 5.71 5.997 11.924 9.504 17.727 3.496 5.786 7 11.076 9.635 14.925l.324.472.323-.472c2.635-3.849 6.14-9.139 9.636-14.925 3.506-5.803 6.951-12.017 9.503-17.727zM31.716 81.852c7.353-10.574 25.42-37.9 25.42-51.105C57.136 14.169 44.386.73 28.659.73 12.93.73.182 14.17.182 30.747c0 13.204 18.067 40.53 25.42 51.105a234.196 234.196 0 0 0 3.057 4.31s1.179-1.609 3.057-4.31z" fill="#335B96"/><circle cx="28.658" cy="32.371" r="9.492" fill="#335B96"/></svg>