<svg width="72" height="71" fill="none" xmlns="http://www.w3.org/2000/svg"><path d="M67.97 35.726c0 17.87-14.487 32.356-32.357 32.356-17.87 0-32.356-14.486-32.356-32.356S17.743 3.37 35.613 3.37s32.356 14.486 32.356 32.356z" fill="#fff"/><path d="M34.29.372a2.538 2.538 0 0 1 2.646 0l3.28 2.005c.56.342 1.231.454 1.872.312l3.753-.83a2.538 2.538 0 0 1 2.503.859l2.451 2.96c.419.506 1.017.83 1.67.904l3.818.432a2.538 2.538 0 0 1 2.09 1.626l1.356 3.596a2.538 2.538 0 0 0 1.285 1.396l3.472 1.65a2.538 2.538 0 0 1 1.448 2.215l.116 3.842c.02.657.293 1.28.762 1.738l2.748 2.688c.68.665.932 1.656.65 2.565l-1.138 3.672a2.537 2.537 0 0 0 .157 1.891l1.726 3.434c.428.85.344 1.87-.218 2.638l-2.268 3.103a2.538 2.538 0 0 0-.466 1.84l.518 3.808a2.537 2.537 0 0 1-1.064 2.424l-3.152 2.198a2.538 2.538 0 0 0-1.039 1.589l-.746 3.77a2.538 2.538 0 0 1-1.793 1.947L57.032 61.7a2.537 2.537 0 0 0-1.498 1.166l-1.93 3.323a2.538 2.538 0 0 1-2.328 1.26l-3.839-.202a2.537 2.537 0 0 0-1.795.616l-2.905 2.517a2.538 2.538 0 0 1-2.61.436l-3.565-1.437a2.538 2.538 0 0 0-1.898 0l-3.565 1.437a2.538 2.538 0 0 1-2.61-.436l-2.905-2.517a2.537 2.537 0 0 0-1.795-.616l-3.839.202c-.95.05-1.85-.436-2.328-1.26l-1.93-3.323a2.537 2.537 0 0 0-1.498-1.166L10.5 60.644a2.538 2.538 0 0 1-1.793-1.947l-.747-3.77a2.538 2.538 0 0 0-1.038-1.589L3.768 51.14a2.538 2.538 0 0 1-1.063-2.424l.518-3.809a2.538 2.538 0 0 0-.466-1.84L.49 39.966a2.538 2.538 0 0 1-.218-2.638l1.726-3.434a2.538 2.538 0 0 0 .157-1.891L1.016 28.33c-.282-.91-.031-1.9.65-2.565l2.748-2.688c.47-.459.742-1.082.762-1.738l.116-3.842a2.538 2.538 0 0 1 1.448-2.215l3.471-1.65a2.538 2.538 0 0 0 1.286-1.396l1.357-3.596a2.538 2.538 0 0 1 2.089-1.626l3.819-.432a2.538 2.538 0 0 0 1.669-.904l2.45-2.96a2.538 2.538 0 0 1 2.504-.86l3.753.831a2.54 2.54 0 0 0 1.872-.312L34.29.372z" fill="#BFE0F1"/><path d="M66.066 35.726c0 16.819-13.634 30.453-30.453 30.453S5.16 52.545 5.16 35.726c0-16.818 13.634-30.453 30.453-30.453s30.453 13.635 30.453 30.453z" fill="#fff"/><path fill-rule="evenodd" clip-rule="evenodd" d="M35.613 62.373c14.716 0 26.646-11.93 26.646-26.647C62.26 21.01 50.33 9.08 35.613 9.08c-14.716 0-26.646 11.93-26.646 26.646 0 14.717 11.93 26.647 26.646 26.647zm0 1.903c15.767 0 28.55-12.782 28.55-28.55 0-15.767-12.782-28.55-28.55-28.55-15.767 0-28.55 12.783-28.55 28.55 0 15.768 12.783 28.55 28.55 28.55z" fill="#335B96"/><path fill-rule="evenodd" clip-rule="evenodd" d="M49.13 25.25c.531.457.59 1.258.133 1.789L33.402 45.437a1.269 1.269 0 0 1-1.858.07l-8.882-8.883a1.269 1.269 0 0 1 1.794-1.794l7.916 7.916 14.969-17.364a1.269 1.269 0 0 1 1.79-.133z" fill="#CE001F"/></svg>