<svg width="63" height="70" fill="none" xmlns="http://www.w3.org/2000/svg"><path d="M28.214 2.672h5.878V8.55h-5.878V2.672zm17.832 6.702l2.906 1.678-1.358 2.352-2.906-1.678 1.358-2.352z" fill="#335B96"/><path d="M62.305 38.527c0 17.205-13.947 31.152-31.152 31.152C13.948 69.68 0 55.732 0 38.527 0 21.32 13.947 7.374 31.152 7.374c17.206 0 31.153 13.948 31.153 31.153z" fill="#BFE0F1"/><path d="M58.778 38.526c0 15.258-12.368 27.626-27.626 27.626-15.257 0-27.626-12.368-27.626-27.626C3.526 23.27 15.895 10.9 31.152 10.9c15.258 0 27.626 12.369 27.626 27.626z" fill="#fff"/><path d="M15.44 24.193a.976.976 0 0 1 1.38-1.38l19.529 19.53a.976.976 0 0 1-1.38 1.38l-19.53-19.53z" fill="#335B96"/><path d="M34.062 35.617a4.114 4.114 0 1 1-5.819 5.819 4.114 4.114 0 0 1 5.82-5.819z" fill="#CE001F"/><path d="M32.279 37.4a1.592 1.592 0 1 1-2.252 2.253 1.592 1.592 0 0 1 2.252-2.253z" fill="#fff"/><path d="M32.279 15.554a1.592 1.592 0 1 1-2.252 2.252 1.592 1.592 0 0 1 2.252-2.252z" fill="#CE001F"/><path d="M25.274 1.79c0-.812.658-1.47 1.47-1.47h8.817a1.47 1.47 0 1 1 0 2.94h-8.817a1.47 1.47 0 0 1-1.47-1.47zm19.448 5.468a1.47 1.47 0 0 1 2.008-.538l4.099 2.367a1.47 1.47 0 0 1-1.47 2.545L45.26 9.265a1.47 1.47 0 0 1-.538-2.007z" fill="#BFE0F1"/></svg>