<svg width="63" height="63" fill="none" xmlns="http://www.w3.org/2000/svg"><path d="M29.925 3.15a1.575 1.575 0 0 1 3.15 0v.525a1.575 1.575 0 1 1-3.15 0V3.15zm0 55.65a1.575 1.575 0 0 1 3.15 0v.525a1.575 1.575 0 1 1-3.15 0V58.8zm29.4-25.725a1.575 1.575 0 0 1 0-3.15h.525a1.575 1.575 0 1 1 0 3.15h-.525zM11 33.622v3.68h11.42v-3.958h-4.854l2.07-1.473c1.412-.994 2.745-2.128 2.745-4.456 0-3.302-2.885-4.596-5.67-4.596-3.004 0-5.93 1.632-6.287 5.292l4.516.518c.06-1.035.617-1.692 1.373-1.692.716 0 1.034.478 1.034.995 0 .458-.338.896-.776 1.234l-5.57 4.456zm24.316 1.194h1.89v-3.7h-1.91v-7.899h-5.73l-5.331 7.74v3.859h6.784v2.487h4.297v-2.487zm-4.238-7.262v3.561h-2.427L31 27.555h.08zm16.709 9.749l3.356-7.15v-2.24h-7.48v2.625h4.031l-3.567 6.765h3.66z" fill="#335B96"/><path d="M41.121 24.04l2.392.679-4.078 14.353-2.392-.68 4.078-14.353z" fill="#CE001F"/><path fill-rule="evenodd" clip-rule="evenodd" d="M45.548 3.306a31.5 31.5 0 0 0-38.95 8.903L3.143 9.771l-1.05 11.502 10.486-4.842-3.405-2.403A28.35 28.35 0 1 1 3.15 31.5H0A31.5 31.5 0 1 0 45.548 3.306z" fill="#BFE0F1"/></svg>